<?xml version="1.0" encoding="UTF-8" standalone="no"?>
<!-- Created with Inkscape (http://www.inkscape.org/) -->

<svg
   xmlns:dc="http://purl.org/dc/elements/1.1/"
   xmlns:cc="http://creativecommons.org/ns#"
   xmlns:rdf="http://www.w3.org/1999/02/22-rdf-syntax-ns#"
   xmlns:svg="http://www.w3.org/2000/svg"
   xmlns="http://www.w3.org/2000/svg"
   xmlns:sodipodi="http://sodipodi.sourceforge.net/DTD/sodipodi-0.dtd"
   xmlns:inkscape="http://www.inkscape.org/namespaces/inkscape"
   width="864"
   height="1034.6666"
   id="svg4191"
   version="1.1"
   inkscape:version="0.92.1 r15371"
   sodipodi:docname="2atomes.svg"
   inkscape:export-filename="D:\Documents Tigrane\JDoc 2014\figures\2atomes.png"
   inkscape:export-xdpi="222.22223"
   inkscape:export-ydpi="222.22223">
  <sodipodi:namedview
     id="base"
     pagecolor="#ffffff"
     bordercolor="#666666"
     borderopacity="1.0"
     inkscape:pageopacity="0.0"
     inkscape:pageshadow="2"
     inkscape:zoom="0.46874493"
     inkscape:cx="660.25656"
     inkscape:cy="1360.8843"
     inkscape:document-units="px"
     inkscape:current-layer="layer1"
     showgrid="false"
     inkscape:snap-grids="false"
     fit-margin-top="0"
     fit-margin-left="0"
     fit-margin-right="0"
     fit-margin-bottom="0"
     inkscape:window-width="709"
     inkscape:window-height="435"
     inkscape:window-x="2928"
     inkscape:window-y="81"
     inkscape:window-maximized="0"
     inkscape:snap-global="false">
    <inkscape:grid
       type="xygrid"
       id="grid4199"
       empspacing="5"
       visible="true"
       enabled="true"
       snapvisiblegridlinesonly="true"
       originx="0"
       originy="0"
       spacingx="1.0666667"
       spacingy="1.0666667" />
  </sodipodi:namedview>
  <defs
     id="defs4193">
    <marker
       inkscape:stockid="Arrow2Mstart"
       orient="auto"
       refY="0"
       refX="0"
       id="Arrow2Mstart"
       style="overflow:visible">
      <path
         id="path4742"
         style="font-size:12px;fill-rule:evenodd;stroke-width:0.40000001;stroke-linejoin:round"
         d="M 5.5798962,2.5815905 -1.4126653,0.01024849 5.5798966,-2.561093 c -1.117119,1.518119 -1.1106821,3.5951692 -4e-7,5.1426835 z"
         inkscape:connector-curvature="0" />
    </marker>
    <marker
       inkscape:stockid="Arrow2Mend"
       orient="auto"
       refY="0"
       refX="0"
       id="Arrow2Mend"
       style="overflow:visible">
      <path
         id="path4745"
         style="font-size:12px;fill-rule:evenodd;stroke-width:0.40000001;stroke-linejoin:round"
         d="M -5.5798962,-2.5815905 1.4126653,-0.01024849 -5.5798966,2.561093 c 1.117119,-1.518119 1.1106821,-3.5951692 4e-7,-5.1426835 z"
         inkscape:connector-curvature="0" />
    </marker>
    <marker
       inkscape:stockid="Arrow1Lend"
       orient="auto"
       refY="0"
       refX="0"
       id="Arrow1Lend"
       style="overflow:visible">
      <path
         id="path4721"
         d="M -10.666667,0 -14.933333,4.2666667 0,0 -14.933333,-4.2666667 Z"
         style="fill-rule:evenodd;stroke:#000000;stroke-width:0.85333335pt;marker-start:none"
         inkscape:connector-curvature="0" />
    </marker>
    <marker
       inkscape:stockid="Arrow2Lend"
       orient="auto"
       refY="0"
       refX="0"
       id="Arrow2Lend"
       style="overflow:visible">
      <path
         id="path4739"
         style="font-size:12px;fill-rule:evenodd;stroke-width:0.73333335;stroke-linejoin:round"
         d="M -11.403143,-4.732916 1.416553,-0.01878889 -11.403144,4.6953372 c 2.0480517,-2.7832182 2.0362508,-6.5911436 10e-7,-9.4282532 z"
         inkscape:connector-curvature="0" />
    </marker>
    <marker
       inkscape:stockid="Arrow2Lstart"
       orient="auto"
       refY="0"
       refX="0"
       id="Arrow2Lstart"
       style="overflow:visible">
      <path
         id="path4736"
         style="font-size:12px;fill-rule:evenodd;stroke-width:0.73333335;stroke-linejoin:round"
         d="M 11.403143,4.732916 -1.416553,0.01878889 11.403144,-4.6953372 c -2.0480517,2.7832182 -2.0362508,6.5911436 -10e-7,9.4282532 z"
         inkscape:connector-curvature="0" />
    </marker>
    <marker
       inkscape:stockid="Arrow2LendS"
       orient="auto"
       refY="0"
       refX="0"
       id="Arrow2LendS"
       style="overflow:visible">
      <path
         id="path3057"
         style="font-size:12px;fill:#f11f1f;fill-rule:evenodd;stroke:#f11f1f;stroke-width:0.73333335;stroke-linejoin:round"
         d="M -11.403143,-4.732916 1.416553,-0.01878889 -11.403144,4.6953372 c 2.0480517,-2.7832182 2.0362508,-6.5911436 10e-7,-9.4282532 z"
         inkscape:connector-curvature="0" />
    </marker>
    <marker
       inkscape:stockid="Arrow2Mendc"
       orient="auto"
       refY="0"
       refX="0"
       id="Arrow2Mendc"
       style="overflow:visible">
      <path
         id="path3196"
         style="font-size:12px;fill:#e0941e;fill-rule:evenodd;stroke:#e0941e;stroke-width:0.40000001;stroke-linejoin:round"
         d="M -5.5798962,-2.5815905 1.4126653,-0.01024849 -5.5798966,2.561093 c 1.117119,-1.518119 1.1106821,-3.5951692 4e-7,-5.1426835 z"
         inkscape:connector-curvature="0" />
    </marker>
    <marker
       inkscape:stockid="Arrow2LendY"
       orient="auto"
       refY="0"
       refX="0"
       id="Arrow2LendY"
       style="overflow:visible">
      <path
         id="path3335"
         style="font-size:12px;fill:#f11f1f;fill-rule:evenodd;stroke:#f11f1f;stroke-width:0.73333335;stroke-linejoin:round"
         d="M -11.403143,-4.732916 1.416553,-0.01878889 -11.403144,4.6953372 c 2.0480517,-2.7832182 2.0362508,-6.5911436 10e-7,-9.4282532 z"
         inkscape:connector-curvature="0" />
    </marker>
    <marker
       inkscape:stockid="Arrow2MendF"
       orient="auto"
       refY="0"
       refX="0"
       id="Arrow2MendF"
       style="overflow:visible">
      <path
         id="path3476"
         style="font-size:12px;fill:#e0941e;fill-rule:evenodd;stroke:#e0941e;stroke-width:0.40000001;stroke-linejoin:round"
         d="M -5.5798962,-2.5815905 1.4126653,-0.01024849 -5.5798966,2.561093 c 1.117119,-1.518119 1.1106821,-3.5951692 4e-7,-5.1426835 z"
         inkscape:connector-curvature="0" />
    </marker>
    <marker
       inkscape:stockid="Arrow2Mendcf"
       orient="auto"
       refY="0"
       refX="0"
       id="Arrow2Mendcf"
       style="overflow:visible">
      <path
         id="path3617"
         style="font-size:12px;fill:#f11f1f;fill-rule:evenodd;stroke:#f11f1f;stroke-width:0.40000001;stroke-linejoin:round"
         d="M -5.5798962,-2.5815905 1.4126653,-0.01024849 -5.5798966,2.561093 c 1.117119,-1.518119 1.1106821,-3.5951692 4e-7,-5.1426835 z"
         inkscape:connector-curvature="0" />
    </marker>
    <marker
       inkscape:stockid="Arrow2Mendu"
       orient="auto"
       refY="0"
       refX="0"
       id="Arrow2Mendu"
       style="overflow:visible">
      <path
         id="path3760"
         style="font-size:12px;fill:#f11f1f;fill-rule:evenodd;stroke:#f11f1f;stroke-width:0.40000001;stroke-linejoin:round"
         d="M -5.5798962,-2.5815905 1.4126653,-0.01024849 -5.5798966,2.561093 c 1.117119,-1.518119 1.1106821,-3.5951692 4e-7,-5.1426835 z"
         inkscape:connector-curvature="0" />
    </marker>
  </defs>
  <metadata
     id="metadata4196">
    <rdf:RDF>
      <cc:Work
         rdf:about="">
        <dc:format>image/svg+xml</dc:format>
        <dc:type
           rdf:resource="http://purl.org/dc/dcmitype/StillImage" />
        <dc:title></dc:title>
      </cc:Work>
    </rdf:RDF>
  </metadata>
  <g
     inkscape:label="Calque 1"
     inkscape:groupmode="layer"
     id="layer1"
     transform="translate(261.33333,248.14701)">
    <text
       xml:space="preserve"
       style="font-style:normal;font-weight:normal;line-height:0%;font-family:sans-serif;letter-spacing:0px;word-spacing:0px;fill:#000000;fill-opacity:1;stroke:none;stroke-width:1.06666672"
       x="-216.38095"
       y="656.23401"
       id="text5911"><tspan
         sodipodi:role="line"
         id="tspan5913"
         x="-216.38095"
         y="656.23401"
         style="font-size:42.66666794px;line-height:1.25;font-family:sans-serif;stroke-width:1.06666672"> </tspan></text>
    <path
       style="fill:none;stroke:none;stroke-width:1.06666672"
       d="m -187.98452,575.95739 c -3.56535,-18.16719 -4.45965,-23.79501 -4.00021,-25.17332 0.27301,-0.81905 6.38599,3.30528 13.58438,9.1652 l 13.088,10.65438 -5.97545,1.67302 c -3.2865,0.92016 -8.07603,3.71307 -10.6434,6.20648 l -4.66794,4.53345 z"
       id="path9118"
       inkscape:connector-curvature="0" />
    <path
       style="fill:#ff0000;fill-opacity:1;fill-rule:nonzero;stroke:#f11f1f;stroke-width:4.04712009;stroke-linejoin:miter;stroke-miterlimit:4;stroke-dasharray:none;stroke-dashoffset:0;stroke-opacity:1"
       d=""
       id="path9138"
       inkscape:connector-curvature="0" />
    <path
       style="fill:#f11f1f;fill-opacity:1;fill-rule:nonzero;stroke:#29a9e9;stroke-width:4.04712009;stroke-linejoin:miter;stroke-miterlimit:4;stroke-dasharray:none;stroke-dashoffset:0;stroke-opacity:1"
       d=""
       id="path9150"
       inkscape:connector-curvature="0" />
    <g
       id="g9318">
      <g
         id="g9334">
        <g
           id="g9209">
          <g
             id="g9196">
            <path
               style="fill:none;stroke:#f11f1f;stroke-width:3.20000005;stroke-linecap:butt;stroke-linejoin:miter;stroke-miterlimit:4;stroke-dasharray:none;stroke-opacity:1;marker-end:url(#Arrow2LendS)"
               d="M 469.33333,-114.81367 457.14286,-239.76605"
               id="path5721"
               inkscape:connector-curvature="0" />
          </g>
          <g
             id="g9188">
            <g
               id="g9184" />
          </g>
        </g>
        <g
           id="g9314">
          <circle
             style="fill:none;stroke:#29c1e9;stroke-width:10.66666698;stroke-miterlimit:4;stroke-dasharray:none;stroke-dashoffset:0;stroke-opacity:1;marker-start:none"
             id="path4203"
             cx="469.33334"
             cy="-114.81367"
             r="128" />
          <circle
             style="fill:#000000;fill-opacity:1;stroke:none;stroke-width:1.06666672"
             id="path5909"
             cx="469.33334"
             cy="-117.86131"
             r="15.238095" />
        </g>
      </g>
    </g>
    <g
       id="g9271">
      <g
         id="g9258">
        <g
           id="g9236">
          <path
             inkscape:connector-curvature="0"
             id="path5535"
             d="M -131.04762,653.18633 -192,549.56729"
             style="fill:none;stroke:#f11f1f;stroke-width:3.20000005;stroke-linecap:butt;stroke-linejoin:miter;stroke-miterlimit:4;stroke-dasharray:none;stroke-opacity:1;marker-end:url(#Arrow2LendY)" />
        </g>
        <g
           id="g9245">
          <g
             style="fill:#f11f1f;fill-opacity:1"
             id="g7038"
             transform="matrix(0.65636471,0,0,0.6113548,-365.0319,424.49936)" />
          <g
             id="g9241" />
        </g>
      </g>
      <g
         id="g9254">
        <circle
           style="fill:none;stroke:#29a9e9;stroke-width:10.66666698;stroke-miterlimit:4;stroke-dasharray:none;stroke-dashoffset:0;stroke-opacity:1"
           id="path4201"
           cx="-128"
           cy="653.18634"
           r="128" />
        <circle
           style="fill:#000000;fill-opacity:1;stroke:none;stroke-width:3.20000005;stroke-miterlimit:4;stroke-dasharray:none;stroke-dashoffset:0;stroke-opacity:1"
           id="path5907"
           cx="-128"
           cy="653.18634"
           r="15.238095" />
      </g>
    </g>
    <g
       id="g9354">
      <g
         transform="translate(22.868169,-9.5581748)"
         id="g7033" />
      <g
         id="g9350">
        <path
           style="display:inline;fill:none;stroke:#e0941e;stroke-width:7.4666667;stroke-linecap:butt;stroke-linejoin:miter;stroke-miterlimit:4;stroke-dasharray:none;stroke-opacity:1;marker-start:none;marker-mid:none;marker-end:url(#Arrow2Mendc)"
           d="M -49.522088,552.06861 463.50378,-108.95833"
           id="path4205"
           inkscape:connector-curvature="0"
           inkscape:connection-start="#path4201"
           inkscape:connection-start-point="d4"
           sodipodi:nodetypes="cc"
           inkscape:connector-type="polyline" />
        <path
           style="fill:none;stroke:#000000;stroke-width:5.33333349;stroke-linecap:butt;stroke-linejoin:miter;stroke-miterlimit:4;stroke-dasharray:10.66666667, 5.33333333;stroke-dashoffset:0;stroke-opacity:1;marker-start:url(#Arrow2Mstart);marker-end:url(#Arrow2Mend)"
           d="M -155.55601,539.33476 C -143.32813,326.42555 -127.98816,149.95775 25.508853,-13.512245 179.00588,-176.98223 421.20874,-223.37538 421.20874,-223.37538"
           id="path9363"
           inkscape:connector-curvature="0"
           sodipodi:nodetypes="czc" />
      </g>
    </g>
    <g
       id="g1302"
       transform="matrix(1.5722142,0,0,1.5722142,-790.9924,264.26746)"
       style="fill:#f11f1f;fill-opacity:1;stroke:#f11f1f;stroke-opacity:1">
      <path
         style="font-style:normal;font-variant:normal;font-weight:normal;font-stretch:normal;letter-spacing:normal;word-spacing:normal;text-anchor:start;fill:#f11f1f;fill-opacity:1;fill-rule:evenodd;stroke:#f11f1f;stroke-width:0;stroke-linecap:butt;stroke-linejoin:miter;stroke-miterlimit:10.43299961;stroke-dasharray:none;stroke-dashoffset:0;stroke-opacity:1"
         inkscape:connector-curvature="0"
         id="path1006"
         d="m 397.52639,237.80434 -0.32091,0.23451 -0.29623,0.24686 -0.29623,0.23452 -0.27154,0.24685 -0.28389,0.23452 -0.2592,0.23451 -0.24685,0.23452 -0.24686,0.23451 -0.23452,0.22217 -0.22217,0.22217 -0.22217,0.22217 -0.20983,0.22218 -0.19748,0.20982 -0.18515,0.20983 -0.18514,0.20983 -0.1728,0.19749 -0.16046,0.18514 -0.16045,0.19749 -0.14812,0.18514 -0.13577,0.1728 -0.13577,0.1728 -0.12343,0.16046 -0.11108,0.16045 -0.11109,0.14812 -0.0987,0.13577 -0.0987,0.13577 -0.0864,0.12343 -0.074,0.12343 -0.0741,0.11108 -0.0617,0.0987 -0.0617,0.0864 -0.0494,0.0864 c -2.75246,4.24594 -3.25851,8.1216 -3.25851,8.17097 0,0.74057 0.75291,0.74057 1.23428,0.74057 1.04914,0 1.09852,-0.12343 1.35772,-1.23429 1.41942,-6.02331 5.04822,-11.19497 11.98491,-14.02148 0.74057,-0.23452 0.92571,-0.37029 0.92571,-0.78995 0,-0.432 -0.35794,-0.61714 -0.49371,-0.67885 -2.70309,-1.0368 -10.14583,-4.12252 -12.47863,-14.46583 -0.19748,-0.72823 -0.24686,-0.90103 -1.296,-0.90103 -0.48137,0 -1.23428,0 -1.23428,0.72823 0,0.11109 0.55542,3.99908 3.14742,8.1216 1.23429,1.82674 3.01166,3.98674 5.65303,5.9616 h -45.69325 c -1.09852,0 -2.22172,0 -2.22172,1.23428 0,1.23429 1.1232,1.23429 2.22172,1.23429 z" />
      <path
         style="font-style:normal;font-variant:normal;font-weight:normal;font-stretch:normal;letter-spacing:normal;word-spacing:normal;text-anchor:start;fill:#f11f1f;fill-opacity:1;fill-rule:evenodd;stroke:#f11f1f;stroke-width:0;stroke-linecap:butt;stroke-linejoin:miter;stroke-miterlimit:10.43299961;stroke-dasharray:none;stroke-dashoffset:0;stroke-opacity:1"
         inkscape:connector-curvature="0"
         id="path1008"
         d="m 354.77074,271.0043 -0.0247,0.0864 -0.0123,0.0987 -0.0247,0.0864 -0.0123,0.0987 -0.0494,0.19749 -0.0494,0.19749 -0.037,0.19748 -0.0494,0.19749 -0.0494,0.19748 -0.0494,0.19749 -0.0123,0.0987 -0.0247,0.0864 -0.0247,0.0864 -0.0123,0.0864 -0.0247,0.0864 -0.0123,0.0864 -0.0124,0.0741 -0.0123,0.0741 -0.0247,0.074 v 0.0617 l -0.0124,0.0617 -0.0123,0.0494 -0.0123,0.0494 v 0.0494 0.037 0.0247 c 0,1.09851 0.864,1.66629 1.76503,1.66629 0.75291,0 1.85142,-0.48138 2.28342,-1.71566 0.13578,-0.2592 2.20938,-8.62766 2.46858,-9.72617 0.48137,-2.02423 1.59222,-6.31955 1.96251,-7.99817 0.24686,-0.78995 1.97486,-3.69052 3.43131,-5.03589 0.50606,-0.41966 2.28343,-2.02423 4.93715,-2.02423 1.57988,0 2.5056,0.72823 2.56731,0.72823 -1.82674,0.30857 -3.18446,1.80206 -3.18446,3.38194 0,0.97509 0.67886,2.16 2.3328,2.16 1.66629,0 3.38195,-1.40708 3.38195,-3.6288 0,-2.16 -1.97486,-3.98674 -5.0976,-3.98674 -4.01143,0 -6.70217,2.99931 -7.88709,4.71497 -0.48137,-2.75246 -2.70308,-4.71497 -5.59131,-4.71497 -2.81417,0 -3.98675,2.38217 -4.55452,3.48069 -1.09851,2.11062 -1.9008,5.7888 -1.9008,5.98628 0,0.61714 0.61715,0.61714 0.75292,0.61714 0.61714,0 0.66651,-0.0864 1.0368,-1.43177 1.0368,-4.35703 2.27108,-7.30697 4.4928,-7.30697 1.0368,0 1.91314,0.48137 1.91314,2.81417 0,1.296 -0.19749,1.9872 -0.98743,5.17166 z" />
      <path
         style="font-style:normal;font-variant:normal;font-weight:normal;font-stretch:normal;letter-spacing:normal;word-spacing:normal;text-anchor:start;fill:#f11f1f;fill-opacity:1;fill-rule:evenodd;stroke:#f11f1f;stroke-width:0;stroke-linecap:butt;stroke-linejoin:miter;stroke-miterlimit:10.43299961;stroke-dasharray:none;stroke-dashoffset:0;stroke-opacity:1"
         inkscape:connector-curvature="0"
         id="path1010"
         d="m 391.45371,256.46441 v -0.0494 -0.0494 -0.0617 -0.0494 -0.037 -0.0494 -0.0494 -0.037 -0.0494 l -0.0124,-0.037 v -0.037 -0.037 -0.037 l -0.0123,-0.037 v -0.037 -0.0247 l -0.0123,-0.037 v -0.0247 l -0.0123,-0.037 v -0.0247 l -0.0123,-0.0494 -0.0247,-0.0494 -0.0247,-0.037 -0.0247,-0.037 -0.0247,-0.037 -0.0247,-0.037 -0.037,-0.0247 -0.037,-0.0247 -0.037,-0.0247 -0.0494,-0.0123 -0.0494,-0.0123 -0.0617,-0.0247 h -0.0247 -0.0247 l -0.037,-0.0123 h -0.037 l -0.0247,-0.0123 h -0.037 -0.037 -0.037 -0.037 l -0.0494,-0.0123 h -0.037 -0.0494 -0.037 -0.0494 -0.0494 -0.0494 -0.0494 -0.0617 -0.0494 -0.0494 c -2.7648,2.71543 -6.66514,2.75246 -8.43017,2.75246 v 1.54286 c 1.0368,0 3.87566,0 6.2208,-1.19726 v 21.93326 c 0,1.43177 0,1.9872 -4.29532,1.9872 h -1.61691 v 1.54285 c 0.76526,-0.037 6.048,-0.1728 7.65257,-0.1728 1.33303,0 6.75154,0.13578 7.6896,0.1728 v -1.54285 h -1.62926 c -4.30765,0 -4.30765,-0.55543 -4.30765,-1.9872 z" />
    </g>
    <g
       id="g1296"
       style="fill:#f11f1f;fill-opacity:1"
       transform="matrix(1.4132677,0,0,1.4132677,-150.75127,-514.17367)">
      <path
         style="font-style:normal;font-variant:normal;font-weight:normal;font-stretch:normal;letter-spacing:normal;word-spacing:normal;text-anchor:start;fill:#f11f1f;fill-opacity:1;fill-rule:evenodd;stroke:#000000;stroke-width:0;stroke-linecap:butt;stroke-linejoin:miter;stroke-miterlimit:10.43299961;stroke-dasharray:none;stroke-dashoffset:0;stroke-opacity:1"
         inkscape:connector-curvature="0"
         id="path1014"
         d="m 500.00913,238.23355 -0.30857,0.23451 -0.29623,0.24686 -0.29622,0.23452 -0.28389,0.24685 -0.27154,0.23452 -0.2592,0.23451 -0.24686,0.23452 -0.24686,0.23451 -0.23451,0.22217 -0.22217,0.22217 -0.22217,0.22217 -0.20983,0.22218 -0.19749,0.20982 -0.18514,0.20983 -0.18514,0.20983 -0.1728,0.19749 -0.16046,0.18514 -0.16046,0.19749 -0.14811,0.18514 -0.13577,0.1728 -0.13578,0.1728 -0.12342,0.16046 -0.11109,0.16045 -0.11109,0.14812 -0.0987,0.13577 -0.0987,0.13577 -0.0864,0.12343 -0.0741,0.12343 -0.0741,0.11108 -0.0617,0.0987 -0.0617,0.0864 -0.0494,0.0864 c -2.75245,4.24594 -3.25851,8.1216 -3.25851,8.17097 0,0.74057 0.75291,0.74057 1.23429,0.74057 1.0368,0 1.09851,-0.12343 1.34537,-1.23429 1.43177,-6.02331 5.06057,-11.19497 11.99725,-14.02148 0.74058,-0.23452 0.92572,-0.37029 0.92572,-0.78995 0,-0.432 -0.35794,-0.61714 -0.49372,-0.67885 -2.70308,-1.0368 -10.14582,-4.12252 -12.47862,-14.46583 -0.19749,-0.72823 -0.2592,-0.90103 -1.296,-0.90103 -0.48138,0 -1.23429,0 -1.23429,0.72823 0,0.11109 0.55543,3.99908 3.14743,8.1216 1.23428,1.82674 3.01166,3.98674 5.64068,5.9616 h -45.68091 c -1.09851,0 -2.22171,0 -2.22171,1.23428 0,1.23429 1.1232,1.23429 2.22171,1.23429 z" />
      <path
         style="font-style:normal;font-variant:normal;font-weight:normal;font-stretch:normal;letter-spacing:normal;word-spacing:normal;text-anchor:start;fill:#f11f1f;fill-opacity:1;fill-rule:evenodd;stroke:#000000;stroke-width:0;stroke-linecap:butt;stroke-linejoin:miter;stroke-miterlimit:10.43299961;stroke-dasharray:none;stroke-dashoffset:0;stroke-opacity:1"
         inkscape:connector-curvature="0"
         id="path1016"
         d="m 457.26582,271.0043 -0.0247,0.0864 -0.0123,0.0987 -0.0247,0.0864 -0.0247,0.0987 -0.037,0.19749 -0.0494,0.19749 -0.0494,0.19748 -0.037,0.19749 -0.0494,0.19748 -0.0494,0.19749 -0.0123,0.0987 -0.0247,0.0864 -0.0247,0.0864 -0.0123,0.0864 -0.0247,0.0864 -0.0124,0.0864 -0.0123,0.0741 -0.0247,0.0741 -0.0123,0.074 -0.0123,0.0617 v 0.0617 l -0.0123,0.0494 -0.0123,0.0494 v 0.0494 0.037 0.0247 c 0,1.09851 0.864,1.66629 1.76503,1.66629 0.75292,0 1.85143,-0.48138 2.28343,-1.71566 0.13577,-0.2592 2.20937,-8.62766 2.46857,-9.72617 0.48137,-2.02423 1.59223,-6.31955 1.96251,-7.99817 0.24686,-0.78995 1.96252,-3.69052 3.43132,-5.03589 0.50606,-0.41966 2.28343,-2.02423 4.93714,-2.02423 1.57989,0 2.5056,0.72823 2.56732,0.72823 -1.82675,0.30857 -3.18446,1.80206 -3.18446,3.38194 0,0.97509 0.67886,2.16 2.3328,2.16 1.66628,0 3.38194,-1.40708 3.38194,-3.6288 0,-2.16 -1.97486,-3.98674 -5.0976,-3.98674 -4.01143,0 -6.71451,2.99931 -7.88708,4.71497 -0.48138,-2.75246 -2.70309,-4.71497 -5.59132,-4.71497 -2.81417,0 -3.98674,2.38217 -4.55451,3.48069 -1.09852,2.11062 -1.9008,5.7888 -1.9008,5.98628 0,0.61714 0.61714,0.61714 0.75291,0.61714 0.61715,0 0.66652,-0.0864 1.0368,-1.43177 1.0368,-4.35703 2.27109,-7.30697 4.4928,-7.30697 1.0368,0 1.91315,0.48137 1.91315,2.81417 0,1.296 -0.19749,1.9872 -0.98743,5.17166 z" />
      <path
         style="font-style:normal;font-variant:normal;font-weight:normal;font-stretch:normal;letter-spacing:normal;word-spacing:normal;text-anchor:start;fill:#f11f1f;fill-opacity:1;fill-rule:evenodd;stroke:#000000;stroke-width:0;stroke-linecap:butt;stroke-linejoin:miter;stroke-miterlimit:10.43299961;stroke-dasharray:none;stroke-dashoffset:0;stroke-opacity:1"
         inkscape:connector-curvature="0"
         id="path1018"
         d="m 501.25576,275.97847 h -1.45645 c -0.12343,0.9504 -0.56778,3.49303 -1.1232,3.92503 -0.33326,0.24686 -3.64115,0.24686 -4.24595,0.24686 h -7.92411 c 4.51748,-3.98675 6.01097,-5.184 8.60297,-7.20823 3.18446,-2.55497 6.14674,-5.20869 6.14674,-9.30652 0,-5.19634 -4.54217,-8.3808 -10.05943,-8.3808 -5.31977,0 -8.94857,3.73989 -8.94857,7.6896 0,2.19703 1.85143,2.4192 2.29577,2.4192 1.02446,0 2.27109,-0.74057 2.27109,-2.28343 0,-0.76525 -0.30857,-2.27108 -2.54263,-2.27108 1.33303,-3.04869 4.25829,-3.99909 6.28252,-3.99909 4.30765,0 6.54171,3.34492 6.54171,6.8256 0,3.75223 -2.66606,6.71452 -4.04846,8.25737 l -10.35565,10.24458 c -0.44435,0.38262 -0.44435,0.48137 -0.44435,1.67862 h 17.72435 z" />
    </g>
    <g
       id="g1290"
       transform="matrix(1.8736716,0,0,1.8736716,-813.07662,-217.06527)"
       style="fill:#e0941e;fill-opacity:1;stroke:#e0941e;stroke-opacity:1">
      <path
         style="font-style:normal;font-variant:normal;font-weight:normal;font-stretch:normal;letter-spacing:normal;word-spacing:normal;text-anchor:start;fill:#e0941e;fill-opacity:1;fill-rule:evenodd;stroke:#e0941e;stroke-width:0;stroke-linecap:butt;stroke-linejoin:miter;stroke-miterlimit:10.43299961;stroke-dasharray:none;stroke-dashoffset:0;stroke-opacity:1"
         inkscape:connector-curvature="0"
         id="path1022"
         d="m 605.71882,239.32517 -0.32091,0.23451 -0.29623,0.24686 -0.29623,0.23452 -0.28389,0.24685 -0.27154,0.23452 -0.2592,0.23451 -0.24686,0.23452 -0.24685,0.23451 -0.23452,0.22217 -0.23451,0.22217 -0.20983,0.22217 -0.20983,0.22218 -0.19748,0.20982 -0.18515,0.20983 -0.18514,0.20983 -0.1728,0.19749 -0.16046,0.18514 -0.16045,0.19749 -0.14812,0.18514 -0.13577,0.1728 -0.13577,0.1728 -0.12343,0.16046 -0.11109,0.16045 -0.11108,0.14812 -0.0987,0.13577 -0.0987,0.13577 -0.0864,0.12343 -0.074,0.12343 -0.0741,0.11108 -0.0617,0.0987 -0.0617,0.0864 -0.0494,0.0864 c -2.75246,4.24594 -3.25852,8.1216 -3.25852,8.17097 0,0.74057 0.75292,0.74057 1.23429,0.74057 1.0368,0 1.09851,-0.12343 1.34537,-1.23429 1.43177,-6.02331 5.06057,-11.19497 11.99726,-14.02148 0.74057,-0.23452 0.92571,-0.37029 0.92571,-0.78995 0,-0.432 -0.37028,-0.61714 -0.49371,-0.67885 -2.70309,-1.0368 -10.14583,-4.12252 -12.47863,-14.46583 -0.19749,-0.72823 -0.2592,-0.90103 -1.296,-0.90103 -0.48137,0 -1.23429,0 -1.23429,0.72823 0,0.11109 0.55543,3.99908 3.14743,8.1216 1.23429,1.82674 2.99932,3.98674 5.65303,5.9616 h -45.69325 c -1.09852,0 -2.22172,0 -2.22172,1.23428 0,1.23429 1.1232,1.23429 2.22172,1.23429 z" />
      <path
         style="font-style:normal;font-variant:normal;font-weight:normal;font-stretch:normal;letter-spacing:normal;word-spacing:normal;text-anchor:start;fill:#e0941e;fill-opacity:1;fill-rule:evenodd;stroke:#e0941e;stroke-width:0;stroke-linecap:butt;stroke-linejoin:miter;stroke-miterlimit:10.43299961;stroke-dasharray:none;stroke-dashoffset:0;stroke-opacity:1"
         inkscape:connector-curvature="0"
         id="path1024"
         d="m 572.64685,271.0043 -0.0247,0.0864 -0.0123,0.0987 -0.0247,0.0864 -0.0247,0.0987 -0.037,0.19749 -0.0494,0.19749 -0.0494,0.19748 -0.037,0.19749 -0.0494,0.19748 -0.0494,0.19749 -0.0123,0.0987 -0.0247,0.0864 -0.0247,0.0864 -0.0123,0.0864 -0.0247,0.0864 -0.0123,0.0864 -0.0123,0.0741 -0.0247,0.0741 -0.0123,0.074 -0.0123,0.0617 v 0.0617 l -0.0124,0.0494 -0.0123,0.0494 v 0.0494 0.037 0.0247 c 0,1.09851 0.864,1.66629 1.76503,1.66629 0.75291,0 1.85143,-0.48138 2.28343,-1.71566 0.13577,-0.2592 2.20937,-8.62766 2.46857,-9.72617 0.48137,-2.02423 1.59223,-6.31955 1.96251,-7.99817 0.24686,-0.78995 1.97486,-3.69052 3.43132,-5.03589 0.50605,-0.41966 2.28343,-2.02423 4.93714,-2.02423 1.57988,0 2.5056,0.72823 2.56731,0.72823 -1.82674,0.30857 -3.18445,1.80206 -3.18445,3.38194 0,0.97509 0.67885,2.16 2.3328,2.16 1.66628,0 3.38194,-1.40708 3.38194,-3.6288 0,-2.16 -1.97486,-3.98674 -5.0976,-3.98674 -4.01143,0 -6.70217,2.99931 -7.88709,4.71497 -0.48137,-2.75246 -2.70308,-4.71497 -5.59131,-4.71497 -2.81417,0 -3.98674,2.38217 -4.55451,3.48069 -1.09852,2.11062 -1.9008,5.7888 -1.9008,5.98628 0,0.61714 0.61714,0.61714 0.74057,0.61714 0.61714,0 0.67885,-0.0864 1.04914,-1.43177 1.0368,-4.35703 2.27109,-7.30697 4.4928,-7.30697 1.0368,0 1.91314,0.48137 1.91314,2.81417 0,1.296 -0.19748,1.9872 -0.98743,5.17166 z" />
    </g>
    <g
       id="g1183"
       transform="translate(-494.15912,-349.01744)">
      <g
         word-spacing="normal"
         letter-spacing="normal"
         font-size-adjust="none"
         font-stretch="normal"
         font-weight="normal"
         font-variant="normal"
         font-style="normal"
         stroke-miterlimit="10.433"
         xml:space="preserve"
         transform="matrix(1.2342857,0,0,-1.2342857,-216,775.99995)"
         id="g1181"
         style="font-style:normal;font-variant:normal;font-weight:normal;font-stretch:normal;letter-spacing:normal;word-spacing:normal;text-anchor:start;fill:none;fill-opacity:1;fill-rule:evenodd;stroke:#000000;stroke-linecap:butt;stroke-linejoin:miter;stroke-miterlimit:10.43299961;stroke-dasharray:none;stroke-dashoffset:0;stroke-opacity:1"><path
           id="path1169"
           d="m 486.8,434.54 0.23,0.36 0.23,0.33 0.22,0.31 0.22,0.29 0.22,0.28 0.22,0.25 0.22,0.24 0.22,0.22 0.21,0.2 0.21,0.19 0.21,0.17 0.2,0.16 0.21,0.14 0.2,0.13 0.21,0.12 0.19,0.11 0.2,0.09 0.2,0.09 0.19,0.07 0.2,0.07 0.19,0.06 0.19,0.05 0.18,0.04 0.19,0.03 0.18,0.03 0.19,0.03 0.36,0.04 0.35,0.02 0.35,0.02 c 0.6,0.05 0.64,0.89 0.64,0.96 0,0.39 -0.25,0.59 -0.64,0.59 -1.3,0 -2.75,-0.16 -4.09,-0.16 -1.64,0 -3.35,0.16 -4.94,0.16 -0.3,0 -0.94,0 -0.94,-0.95 0,-0.55 0.46,-0.6 0.8,-0.6 1.34,-0.09 2.3,-0.59 2.3,-1.64 0,-0.75 -0.75,-1.84 -0.75,-1.89 l -15.3,-24.31 -3.39,26.34 c 0,0.85 1.14,1.5 3.44,1.5 0.7,0 1.25,0 1.25,1 0,0.44 -0.41,0.55 -0.71,0.55 -1.98,0 -4.14,-0.16 -6.17,-0.16 -0.9,0 -1.84,0.05 -2.75,0.05 -0.89,0 -1.84,0.11 -2.69,0.11 -0.34,0 -0.93,0 -0.93,-0.95 0,-0.6 0.43,-0.6 1.23,-0.6 2.8,0 2.84,-0.45 3,-1.68 l 3.92,-30.75 c 0.16,-1 0.36,-1.14 1,-1.14 0.8,0 1,0.25 1.41,0.89 z"
           inkscape:connector-curvature="0"
           style="fill:#000000;stroke-width:0" /><path
           id="path1171"
           d="m 504.45,421.9 v 0.01 0 h 0.01 v 0.01 0 0.01 l 0.01,0.01 v 0 0.01 0.01 l 0.01,0.01 0.01,0.02 v 0.02 l 0.01,0.02 v 0.02 l 0.01,0.02 v 0.02 l 0.01,0.03 0.01,0.02 0.01,0.05 v 0.02 l 0.01,0.02 v 0.03 l 0.01,0.02 v 0.02 l 0.01,0.02 v 0.02 0.02 l 0.01,0.02 v 0.01 0.01 0.01 0 l 0.01,0.01 v 0 0.01 0 0.01 0 0 0.01 0 c 0,0.19 -0.14,0.5 -0.55,0.5 -0.7,0 -3.59,-0.28 -4.47,-0.36 -0.28,-0.03 -0.76,-0.06 -0.76,-0.8 0,-0.48 0.48,-0.48 0.9,-0.48 1.68,0 1.68,-0.25 1.68,-0.53 0,-0.24 -0.07,-0.46 -0.14,-0.77 l -1.99,-7.94 c -0.73,1.14 -1.92,2.05 -3.59,2.05 v -0.97 c 2.44,0 3.11,-2.64 3.11,-3.03 0,-0.14 -0.08,-0.39 -0.11,-0.48 l -1.64,-6.52 c -0.24,-0.98 -1,-1.67 -1.77,-2.34 -0.31,-0.27 -1.72,-1.39 -3.22,-1.39 -1.28,0 -2.53,0.9 -2.53,3.37 0,1.86 1,5.69 1.81,7.08 1.6,2.8 3.38,3.31 4.35,3.31 v 0.97 c -4.46,0 -8.99,-4.91 -8.99,-9.92 0,-3.38 2.27,-5.78 5.27,-5.78 1.87,0 3.55,1.08 4.94,2.44 0.67,-2.1 2.68,-2.44 3.59,-2.44 1.25,0 2.13,0.76 2.75,1.84 0.77,1.36 1.22,3.35 1.22,3.49 0,0.45 -0.45,0.45 -0.55,0.45 -0.5,0 -0.53,-0.14 -0.76,-1.08 -0.43,-1.67 -1.1,-3.73 -2.55,-3.73 -0.91,0 -1.16,0.76 -1.16,1.7 0,0.67 0.08,0.98 0.18,1.44 z"
           inkscape:connector-curvature="0"
           style="fill:#000000;stroke-width:0" /><path
           id="path1173"
           d="m 525.21,421.9 v 0.01 0 0 l 0.01,0.01 v 0 0.01 0.01 h 0.01 v 0.01 0.01 l 0.01,0.01 v 0.02 l 0.01,0.02 v 0.02 l 0.01,0.02 0.01,0.02 v 0.02 l 0.01,0.03 v 0.02 l 0.02,0.05 v 0.02 l 0.01,0.02 v 0.03 l 0.01,0.02 v 0.02 0.02 l 0.01,0.02 v 0.02 l 0.01,0.02 v 0.01 0.01 0.01 0 0.01 0 l 0.01,0.01 v 0 0.01 0 0 0.01 0 c 0,0.19 -0.14,0.5 -0.55,0.5 -0.7,0 -3.59,-0.28 -4.47,-0.36 -0.28,-0.03 -0.76,-0.06 -0.76,-0.8 0,-0.48 0.48,-0.48 0.9,-0.48 1.68,0 1.68,-0.25 1.68,-0.53 0,-0.24 -0.07,-0.46 -0.15,-0.77 l -1.98,-7.94 c -0.74,1.14 -1.92,2.05 -3.59,2.05 v -0.97 c 2.43,0 3.1,-2.64 3.1,-3.03 0,-0.14 -0.07,-0.39 -0.1,-0.48 l -1.65,-6.52 c -0.23,-0.98 -1,-1.67 -1.76,-2.34 -0.31,-0.27 -1.72,-1.39 -3.22,-1.39 -1.28,0 -2.53,0.9 -2.53,3.37 0,1.86 1,5.69 1.81,7.08 1.6,2.8 3.38,3.31 4.35,3.31 v 0.97 c -4.46,0 -8.99,-4.91 -8.99,-9.92 0,-3.38 2.27,-5.78 5.27,-5.78 1.87,0 3.54,1.08 4.94,2.44 0.67,-2.1 2.68,-2.44 3.59,-2.44 1.25,0 2.12,0.76 2.75,1.84 0.76,1.36 1.22,3.35 1.22,3.49 0,0.45 -0.46,0.45 -0.55,0.45 -0.5,0 -0.53,-0.14 -0.76,-1.08 -0.43,-1.67 -1.1,-3.73 -2.55,-3.73 -0.91,0 -1.16,0.76 -1.16,1.7 0,0.67 0.08,0.98 0.17,1.44 z"
           inkscape:connector-curvature="0"
           style="fill:#000000;stroke-width:0" /><path
           id="path1175"
           d="m 545.09,394.25 v 0.02 l -0.01,0.03 v 0.01 0.02 0.01 l -0.01,0.02 v 0.01 l -0.01,0.02 -0.01,0.02 -0.01,0.02 -0.01,0.02 -0.01,0.03 -0.02,0.02 -0.02,0.03 -0.02,0.03 -0.02,0.03 -0.03,0.03 -0.03,0.04 -0.02,0.02 -0.01,0.02 -0.02,0.02 -0.02,0.02 -0.02,0.02 -0.02,0.03 -0.02,0.02 -0.02,0.02 -0.02,0.03 -0.03,0.02 -0.02,0.03 -0.03,0.03 -0.02,0.03 -0.03,0.03 -0.03,0.03 -0.03,0.03 -0.03,0.03 -0.03,0.03 -0.04,0.04 -0.03,0.03 -0.03,0.04 -0.04,0.03 -0.04,0.04 -0.04,0.04 c -6.22,6.28 -7.81,15.69 -7.81,23.31 0,8.67 1.89,17.35 8.02,23.56 0.64,0.61 0.64,0.71 0.64,0.86 0,0.35 -0.19,0.49 -0.49,0.49 -0.5,0 -4.98,-3.38 -7.92,-9.7 -2.55,-5.49 -3.14,-11.02 -3.14,-15.21 0,-3.89 0.55,-9.9 3.28,-15.54 2.98,-6.13 7.28,-9.36 7.78,-9.36 0.3,0 0.49,0.14 0.49,0.5 z"
           inkscape:connector-curvature="0"
           style="fill:#000000;stroke-width:0" /><path
           id="path1177"
           d="m 552.31,409.14 -0.02,-0.07 -0.01,-0.08 -0.02,-0.07 -0.02,-0.08 -0.03,-0.16 -0.04,-0.16 -0.04,-0.16 -0.03,-0.16 -0.04,-0.16 -0.04,-0.16 -0.01,-0.08 -0.02,-0.07 -0.02,-0.07 -0.01,-0.07 -0.02,-0.07 -0.01,-0.07 -0.01,-0.06 -0.02,-0.06 -0.01,-0.06 -0.01,-0.05 v -0.05 l -0.01,-0.04 -0.01,-0.04 v -0.04 -0.03 L 551.85,407 c 0,-0.89 0.71,-1.35 1.44,-1.35 0.61,0 1.5,0.39 1.85,1.39 0.11,0.21 1.79,6.99 2,7.88 0.39,1.64 1.29,5.12 1.59,6.48 0.2,0.64 1.59,2.99 2.78,4.08 0.41,0.34 1.84,1.64 4,1.64 1.28,0 2.03,-0.59 2.08,-0.59 -1.49,-0.25 -2.58,-1.46 -2.58,-2.74 0,-0.79 0.55,-1.75 1.89,-1.75 1.35,0 2.74,1.14 2.74,2.94 0,1.75 -1.6,3.23 -4.13,3.23 -3.25,0 -5.44,-2.43 -6.39,-3.82 -0.39,2.23 -2.19,3.82 -4.53,3.82 -2.28,0 -3.24,-1.93 -3.69,-2.82 -0.89,-1.71 -1.55,-4.69 -1.55,-4.85 0,-0.5 0.5,-0.5 0.62,-0.5 0.5,0 0.54,0.07 0.84,1.16 0.84,3.53 1.84,5.92 3.64,5.92 0.84,0 1.55,-0.39 1.55,-2.28 0,-1.05 -0.16,-1.61 -0.8,-4.19 z"
           inkscape:connector-curvature="0"
           style="fill:#000000;stroke-width:0" /><path
           id="path1179"
           d="m 586.18,418.65 v 0.37 0.39 l -0.01,0.39 -0.01,0.41 -0.04,0.84 -0.06,0.88 -0.09,0.92 -0.1,0.95 -0.14,0.97 -0.16,1.01 -0.2,1.02 -0.23,1.03 -0.26,1.05 -0.31,1.06 -0.35,1.07 -0.39,1.07 -0.22,0.53 -0.22,0.53 -0.24,0.53 -0.25,0.53 c -2.98,6.12 -7.26,9.36 -7.76,9.36 -0.3,0 -0.5,-0.19 -0.5,-0.49 0,-0.15 0,-0.25 0.93,-1.15 4.9,-4.92 7.74,-12.85 7.74,-23.27 0,-8.51 -1.84,-17.28 -8.03,-23.56 -0.64,-0.59 -0.64,-0.7 -0.64,-0.84 0,-0.3 0.2,-0.5 0.5,-0.5 0.5,0 4.96,3.39 7.92,9.71 2.53,5.47 3.12,11 3.12,15.19 z"
           inkscape:connector-curvature="0"
           style="fill:#000000;stroke-width:0" /></g>    </g>
    <text
       id="text1306"
       y="-623.76599"
       x="-216.38095"
       style="font-style:normal;font-weight:normal;line-height:0%;font-family:sans-serif;letter-spacing:0px;word-spacing:0px;fill:#000000;fill-opacity:1;stroke:none;stroke-width:1.06666672"
       xml:space="preserve"
       inkscape:export-xdpi="222"
       inkscape:export-ydpi="222"><tspan
         style="font-size:42.66666794px;line-height:1.25;font-family:sans-serif;stroke-width:1.06666672"
         y="-623.76599"
         x="-216.38095"
         id="tspan1304"
         sodipodi:role="line"> </tspan></text>
    <path
       inkscape:connector-curvature="0"
       id="path1308"
       d="m -187.98452,-704.04261 c -3.56535,-18.16719 -4.45965,-23.79501 -4.00021,-25.17332 0.27301,-0.81905 6.38599,3.30528 13.58438,9.1652 l 13.088,10.65438 -5.97545,1.67302 c -3.2865,0.92016 -8.07603,3.71307 -10.6434,6.20648 l -4.66794,4.53345 z"
       style="fill:none;stroke:none;stroke-width:1.06666672"
       inkscape:export-xdpi="222"
       inkscape:export-ydpi="222" />
    <g
       id="g1328"
       transform="translate(-20.266886,-674.13508)"
       inkscape:export-xdpi="222"
       inkscape:export-ydpi="222">
      <g
         id="g1326">
        <g
           id="g1318">
          <g
             id="g1312">
            <path
               inkscape:connector-curvature="0"
               id="path1310"
               d="m 469.33333,-114.81367 56.07693,-110.01889"
               style="fill:none;stroke:#f11f1f;stroke-width:3.20000005;stroke-linecap:butt;stroke-linejoin:miter;stroke-miterlimit:4;stroke-dasharray:none;stroke-opacity:1;marker-end:url(#Arrow2LendS)"
               sodipodi:nodetypes="cc" />
          </g>
          <g
             id="g1316">
            <g
               id="g1314" />
          </g>
        </g>
        <g
           id="g1324">
          <circle
             r="128"
             cy="-114.81367"
             cx="469.33334"
             id="circle1320"
             style="fill:none;stroke:#29a9e9;stroke-width:10.66666698;stroke-miterlimit:4;stroke-dasharray:none;stroke-dashoffset:0;stroke-opacity:1;marker-start:none" />
          <circle
             r="15.238095"
             cy="-117.86131"
             cx="469.33334"
             id="circle1322"
             style="fill:#000000;fill-opacity:1;stroke:none;stroke-width:1.06666672" />
        </g>
      </g>
    </g>
    <g
       id="g1348"
       transform="translate(0,-1280)"
       inkscape:export-xdpi="222"
       inkscape:export-ydpi="222">
      <g
         id="g1340">
        <g
           id="g1332">
          <path
             style="fill:none;stroke:#f11f1f;stroke-width:3.20000005;stroke-linecap:butt;stroke-linejoin:miter;stroke-miterlimit:4;stroke-dasharray:none;stroke-opacity:1;marker-end:url(#Arrow2LendY)"
             d="M -131.04762,653.18633 -192,549.56729"
             id="path1330"
             inkscape:connector-curvature="0" />
        </g>
        <g
           id="g1338">
          <g
             transform="matrix(0.65636471,0,0,0.6113548,-365.0319,424.49936)"
             id="g1334"
             style="fill:#f11f1f;fill-opacity:1" />
          <g
             id="g1336" />
        </g>
      </g>
      <g
         id="g1346">
        <circle
           r="128"
           cy="653.18634"
           cx="-128"
           id="circle1342"
           style="fill:none;stroke:#29a9e9;stroke-width:10.66666698;stroke-miterlimit:4;stroke-dasharray:none;stroke-dashoffset:0;stroke-opacity:1" />
        <circle
           r="15.238095"
           cy="653.18634"
           cx="-128"
           id="circle1344"
           style="fill:#000000;fill-opacity:1;stroke:none;stroke-width:3.20000005;stroke-miterlimit:4;stroke-dasharray:none;stroke-dashoffset:0;stroke-opacity:1" />
      </g>
    </g>
    <g
       id="g1358"
       transform="translate(0,-1280)"
       inkscape:export-xdpi="222"
       inkscape:export-ydpi="222">
      <g
         id="g1350"
         transform="translate(22.868169,-9.5581748)" />
      <g
         id="g1356">
        <path
           inkscape:connector-type="polyline"
           sodipodi:nodetypes="cc"
           inkscape:connection-start-point="d4"
           inkscape:connection-start="#path4201"
           inkscape:connector-curvature="0"
           id="path1352"
           d="M -128.45627,654.46972 431.37025,491.5815"
           style="display:inline;fill:none;stroke:#e0941e;stroke-width:7.4666667;stroke-linecap:butt;stroke-linejoin:miter;stroke-miterlimit:4;stroke-dasharray:none;stroke-opacity:1;marker-start:none;marker-mid:none;marker-end:url(#Arrow2Mendc)" />
      </g>
    </g>
    <g
       style="fill:#f11f1f;fill-opacity:1;stroke:#f11f1f;stroke-opacity:1"
       transform="matrix(1.5722142,0,0,1.5722142,-790.9924,-1015.7325)"
       id="g1366"
       inkscape:export-xdpi="222"
       inkscape:export-ydpi="222">
      <path
         d="m 397.52639,237.80434 -0.32091,0.23451 -0.29623,0.24686 -0.29623,0.23452 -0.27154,0.24685 -0.28389,0.23452 -0.2592,0.23451 -0.24685,0.23452 -0.24686,0.23451 -0.23452,0.22217 -0.22217,0.22217 -0.22217,0.22217 -0.20983,0.22218 -0.19748,0.20982 -0.18515,0.20983 -0.18514,0.20983 -0.1728,0.19749 -0.16046,0.18514 -0.16045,0.19749 -0.14812,0.18514 -0.13577,0.1728 -0.13577,0.1728 -0.12343,0.16046 -0.11108,0.16045 -0.11109,0.14812 -0.0987,0.13577 -0.0987,0.13577 -0.0864,0.12343 -0.074,0.12343 -0.0741,0.11108 -0.0617,0.0987 -0.0617,0.0864 -0.0494,0.0864 c -2.75246,4.24594 -3.25851,8.1216 -3.25851,8.17097 0,0.74057 0.75291,0.74057 1.23428,0.74057 1.04914,0 1.09852,-0.12343 1.35772,-1.23429 1.41942,-6.02331 5.04822,-11.19497 11.98491,-14.02148 0.74057,-0.23452 0.92571,-0.37029 0.92571,-0.78995 0,-0.432 -0.35794,-0.61714 -0.49371,-0.67885 -2.70309,-1.0368 -10.14583,-4.12252 -12.47863,-14.46583 -0.19748,-0.72823 -0.24686,-0.90103 -1.296,-0.90103 -0.48137,0 -1.23428,0 -1.23428,0.72823 0,0.11109 0.55542,3.99908 3.14742,8.1216 1.23429,1.82674 3.01166,3.98674 5.65303,5.9616 h -45.69325 c -1.09852,0 -2.22172,0 -2.22172,1.23428 0,1.23429 1.1232,1.23429 2.22172,1.23429 z"
         id="path1360"
         inkscape:connector-curvature="0"
         style="font-style:normal;font-variant:normal;font-weight:normal;font-stretch:normal;letter-spacing:normal;word-spacing:normal;text-anchor:start;fill:#f11f1f;fill-opacity:1;fill-rule:evenodd;stroke:#f11f1f;stroke-width:0;stroke-linecap:butt;stroke-linejoin:miter;stroke-miterlimit:10.43299961;stroke-dasharray:none;stroke-dashoffset:0;stroke-opacity:1" />
      <path
         d="m 354.77074,271.0043 -0.0247,0.0864 -0.0123,0.0987 -0.0247,0.0864 -0.0123,0.0987 -0.0494,0.19749 -0.0494,0.19749 -0.037,0.19748 -0.0494,0.19749 -0.0494,0.19748 -0.0494,0.19749 -0.0123,0.0987 -0.0247,0.0864 -0.0247,0.0864 -0.0123,0.0864 -0.0247,0.0864 -0.0123,0.0864 -0.0124,0.0741 -0.0123,0.0741 -0.0247,0.074 v 0.0617 l -0.0124,0.0617 -0.0123,0.0494 -0.0123,0.0494 v 0.0494 0.037 0.0247 c 0,1.09851 0.864,1.66629 1.76503,1.66629 0.75291,0 1.85142,-0.48138 2.28342,-1.71566 0.13578,-0.2592 2.20938,-8.62766 2.46858,-9.72617 0.48137,-2.02423 1.59222,-6.31955 1.96251,-7.99817 0.24686,-0.78995 1.97486,-3.69052 3.43131,-5.03589 0.50606,-0.41966 2.28343,-2.02423 4.93715,-2.02423 1.57988,0 2.5056,0.72823 2.56731,0.72823 -1.82674,0.30857 -3.18446,1.80206 -3.18446,3.38194 0,0.97509 0.67886,2.16 2.3328,2.16 1.66629,0 3.38195,-1.40708 3.38195,-3.6288 0,-2.16 -1.97486,-3.98674 -5.0976,-3.98674 -4.01143,0 -6.70217,2.99931 -7.88709,4.71497 -0.48137,-2.75246 -2.70308,-4.71497 -5.59131,-4.71497 -2.81417,0 -3.98675,2.38217 -4.55452,3.48069 -1.09851,2.11062 -1.9008,5.7888 -1.9008,5.98628 0,0.61714 0.61715,0.61714 0.75292,0.61714 0.61714,0 0.66651,-0.0864 1.0368,-1.43177 1.0368,-4.35703 2.27108,-7.30697 4.4928,-7.30697 1.0368,0 1.91314,0.48137 1.91314,2.81417 0,1.296 -0.19749,1.9872 -0.98743,5.17166 z"
         id="path1362"
         inkscape:connector-curvature="0"
         style="font-style:normal;font-variant:normal;font-weight:normal;font-stretch:normal;letter-spacing:normal;word-spacing:normal;text-anchor:start;fill:#f11f1f;fill-opacity:1;fill-rule:evenodd;stroke:#f11f1f;stroke-width:0;stroke-linecap:butt;stroke-linejoin:miter;stroke-miterlimit:10.43299961;stroke-dasharray:none;stroke-dashoffset:0;stroke-opacity:1" />
      <path
         d="m 391.45371,256.46441 v -0.0494 -0.0494 -0.0617 -0.0494 -0.037 -0.0494 -0.0494 -0.037 -0.0494 l -0.0124,-0.037 v -0.037 -0.037 -0.037 l -0.0123,-0.037 v -0.037 -0.0247 l -0.0123,-0.037 v -0.0247 l -0.0123,-0.037 v -0.0247 l -0.0123,-0.0494 -0.0247,-0.0494 -0.0247,-0.037 -0.0247,-0.037 -0.0247,-0.037 -0.0247,-0.037 -0.037,-0.0247 -0.037,-0.0247 -0.037,-0.0247 -0.0494,-0.0123 -0.0494,-0.0123 -0.0617,-0.0247 h -0.0247 -0.0247 l -0.037,-0.0123 h -0.037 l -0.0247,-0.0123 h -0.037 -0.037 -0.037 -0.037 l -0.0494,-0.0123 h -0.037 -0.0494 -0.037 -0.0494 -0.0494 -0.0494 -0.0494 -0.0617 -0.0494 -0.0494 c -2.7648,2.71543 -6.66514,2.75246 -8.43017,2.75246 v 1.54286 c 1.0368,0 3.87566,0 6.2208,-1.19726 v 21.93326 c 0,1.43177 0,1.9872 -4.29532,1.9872 h -1.61691 v 1.54285 c 0.76526,-0.037 6.048,-0.1728 7.65257,-0.1728 1.33303,0 6.75154,0.13578 7.6896,0.1728 v -1.54285 h -1.62926 c -4.30765,0 -4.30765,-0.55543 -4.30765,-1.9872 z"
         id="path1364"
         inkscape:connector-curvature="0"
         style="font-style:normal;font-variant:normal;font-weight:normal;font-stretch:normal;letter-spacing:normal;word-spacing:normal;text-anchor:start;fill:#f11f1f;fill-opacity:1;fill-rule:evenodd;stroke:#f11f1f;stroke-width:0;stroke-linecap:butt;stroke-linejoin:miter;stroke-miterlimit:10.43299961;stroke-dasharray:none;stroke-dashoffset:0;stroke-opacity:1" />
    </g>
    <g
       transform="matrix(1.4132677,0,0,1.4132677,-156.08466,-1156.3028)"
       style="fill:#f11f1f;fill-opacity:1"
       id="g1374"
       inkscape:export-xdpi="222"
       inkscape:export-ydpi="222">
      <path
         d="m 500.00913,238.23355 -0.30857,0.23451 -0.29623,0.24686 -0.29622,0.23452 -0.28389,0.24685 -0.27154,0.23452 -0.2592,0.23451 -0.24686,0.23452 -0.24686,0.23451 -0.23451,0.22217 -0.22217,0.22217 -0.22217,0.22217 -0.20983,0.22218 -0.19749,0.20982 -0.18514,0.20983 -0.18514,0.20983 -0.1728,0.19749 -0.16046,0.18514 -0.16046,0.19749 -0.14811,0.18514 -0.13577,0.1728 -0.13578,0.1728 -0.12342,0.16046 -0.11109,0.16045 -0.11109,0.14812 -0.0987,0.13577 -0.0987,0.13577 -0.0864,0.12343 -0.0741,0.12343 -0.0741,0.11108 -0.0617,0.0987 -0.0617,0.0864 -0.0494,0.0864 c -2.75245,4.24594 -3.25851,8.1216 -3.25851,8.17097 0,0.74057 0.75291,0.74057 1.23429,0.74057 1.0368,0 1.09851,-0.12343 1.34537,-1.23429 1.43177,-6.02331 5.06057,-11.19497 11.99725,-14.02148 0.74058,-0.23452 0.92572,-0.37029 0.92572,-0.78995 0,-0.432 -0.35794,-0.61714 -0.49372,-0.67885 -2.70308,-1.0368 -10.14582,-4.12252 -12.47862,-14.46583 -0.19749,-0.72823 -0.2592,-0.90103 -1.296,-0.90103 -0.48138,0 -1.23429,0 -1.23429,0.72823 0,0.11109 0.55543,3.99908 3.14743,8.1216 1.23428,1.82674 3.01166,3.98674 5.64068,5.9616 h -45.68091 c -1.09851,0 -2.22171,0 -2.22171,1.23428 0,1.23429 1.1232,1.23429 2.22171,1.23429 z"
         id="path1368"
         inkscape:connector-curvature="0"
         style="font-style:normal;font-variant:normal;font-weight:normal;font-stretch:normal;letter-spacing:normal;word-spacing:normal;text-anchor:start;fill:#f11f1f;fill-opacity:1;fill-rule:evenodd;stroke:#000000;stroke-width:0;stroke-linecap:butt;stroke-linejoin:miter;stroke-miterlimit:10.43299961;stroke-dasharray:none;stroke-dashoffset:0;stroke-opacity:1" />
      <path
         d="m 457.26582,271.0043 -0.0247,0.0864 -0.0123,0.0987 -0.0247,0.0864 -0.0247,0.0987 -0.037,0.19749 -0.0494,0.19749 -0.0494,0.19748 -0.037,0.19749 -0.0494,0.19748 -0.0494,0.19749 -0.0123,0.0987 -0.0247,0.0864 -0.0247,0.0864 -0.0123,0.0864 -0.0247,0.0864 -0.0124,0.0864 -0.0123,0.0741 -0.0247,0.0741 -0.0123,0.074 -0.0123,0.0617 v 0.0617 l -0.0123,0.0494 -0.0123,0.0494 v 0.0494 0.037 0.0247 c 0,1.09851 0.864,1.66629 1.76503,1.66629 0.75292,0 1.85143,-0.48138 2.28343,-1.71566 0.13577,-0.2592 2.20937,-8.62766 2.46857,-9.72617 0.48137,-2.02423 1.59223,-6.31955 1.96251,-7.99817 0.24686,-0.78995 1.96252,-3.69052 3.43132,-5.03589 0.50606,-0.41966 2.28343,-2.02423 4.93714,-2.02423 1.57989,0 2.5056,0.72823 2.56732,0.72823 -1.82675,0.30857 -3.18446,1.80206 -3.18446,3.38194 0,0.97509 0.67886,2.16 2.3328,2.16 1.66628,0 3.38194,-1.40708 3.38194,-3.6288 0,-2.16 -1.97486,-3.98674 -5.0976,-3.98674 -4.01143,0 -6.71451,2.99931 -7.88708,4.71497 -0.48138,-2.75246 -2.70309,-4.71497 -5.59132,-4.71497 -2.81417,0 -3.98674,2.38217 -4.55451,3.48069 -1.09852,2.11062 -1.9008,5.7888 -1.9008,5.98628 0,0.61714 0.61714,0.61714 0.75291,0.61714 0.61715,0 0.66652,-0.0864 1.0368,-1.43177 1.0368,-4.35703 2.27109,-7.30697 4.4928,-7.30697 1.0368,0 1.91315,0.48137 1.91315,2.81417 0,1.296 -0.19749,1.9872 -0.98743,5.17166 z"
         id="path1370"
         inkscape:connector-curvature="0"
         style="font-style:normal;font-variant:normal;font-weight:normal;font-stretch:normal;letter-spacing:normal;word-spacing:normal;text-anchor:start;fill:#f11f1f;fill-opacity:1;fill-rule:evenodd;stroke:#000000;stroke-width:0;stroke-linecap:butt;stroke-linejoin:miter;stroke-miterlimit:10.43299961;stroke-dasharray:none;stroke-dashoffset:0;stroke-opacity:1" />
      <path
         d="m 501.25576,275.97847 h -1.45645 c -0.12343,0.9504 -0.56778,3.49303 -1.1232,3.92503 -0.33326,0.24686 -3.64115,0.24686 -4.24595,0.24686 h -7.92411 c 4.51748,-3.98675 6.01097,-5.184 8.60297,-7.20823 3.18446,-2.55497 6.14674,-5.20869 6.14674,-9.30652 0,-5.19634 -4.54217,-8.3808 -10.05943,-8.3808 -5.31977,0 -8.94857,3.73989 -8.94857,7.6896 0,2.19703 1.85143,2.4192 2.29577,2.4192 1.02446,0 2.27109,-0.74057 2.27109,-2.28343 0,-0.76525 -0.30857,-2.27108 -2.54263,-2.27108 1.33303,-3.04869 4.25829,-3.99909 6.28252,-3.99909 4.30765,0 6.54171,3.34492 6.54171,6.8256 0,3.75223 -2.66606,6.71452 -4.04846,8.25737 l -10.35565,10.24458 c -0.44435,0.38262 -0.44435,0.48137 -0.44435,1.67862 h 17.72435 z"
         id="path1372"
         inkscape:connector-curvature="0"
         style="font-style:normal;font-variant:normal;font-weight:normal;font-stretch:normal;letter-spacing:normal;word-spacing:normal;text-anchor:start;fill:#f11f1f;fill-opacity:1;fill-rule:evenodd;stroke:#000000;stroke-width:0;stroke-linecap:butt;stroke-linejoin:miter;stroke-miterlimit:10.43299961;stroke-dasharray:none;stroke-dashoffset:0;stroke-opacity:1" />
    </g>
    <g
       style="fill:#e0941e;fill-opacity:1;stroke:#e0941e;stroke-opacity:1"
       transform="matrix(1.8736716,0,0,1.8736716,-950.67811,-1259.1961)"
       id="g1380"
       inkscape:export-xdpi="222"
       inkscape:export-ydpi="222">
      <path
         d="m 605.71882,239.32517 -0.32091,0.23451 -0.29623,0.24686 -0.29623,0.23452 -0.28389,0.24685 -0.27154,0.23452 -0.2592,0.23451 -0.24686,0.23452 -0.24685,0.23451 -0.23452,0.22217 -0.23451,0.22217 -0.20983,0.22217 -0.20983,0.22218 -0.19748,0.20982 -0.18515,0.20983 -0.18514,0.20983 -0.1728,0.19749 -0.16046,0.18514 -0.16045,0.19749 -0.14812,0.18514 -0.13577,0.1728 -0.13577,0.1728 -0.12343,0.16046 -0.11109,0.16045 -0.11108,0.14812 -0.0987,0.13577 -0.0987,0.13577 -0.0864,0.12343 -0.074,0.12343 -0.0741,0.11108 -0.0617,0.0987 -0.0617,0.0864 -0.0494,0.0864 c -2.75246,4.24594 -3.25852,8.1216 -3.25852,8.17097 0,0.74057 0.75292,0.74057 1.23429,0.74057 1.0368,0 1.09851,-0.12343 1.34537,-1.23429 1.43177,-6.02331 5.06057,-11.19497 11.99726,-14.02148 0.74057,-0.23452 0.92571,-0.37029 0.92571,-0.78995 0,-0.432 -0.37028,-0.61714 -0.49371,-0.67885 -2.70309,-1.0368 -10.14583,-4.12252 -12.47863,-14.46583 -0.19749,-0.72823 -0.2592,-0.90103 -1.296,-0.90103 -0.48137,0 -1.23429,0 -1.23429,0.72823 0,0.11109 0.55543,3.99908 3.14743,8.1216 1.23429,1.82674 2.99932,3.98674 5.65303,5.9616 h -45.69325 c -1.09852,0 -2.22172,0 -2.22172,1.23428 0,1.23429 1.1232,1.23429 2.22172,1.23429 z"
         id="path1376"
         inkscape:connector-curvature="0"
         style="font-style:normal;font-variant:normal;font-weight:normal;font-stretch:normal;letter-spacing:normal;word-spacing:normal;text-anchor:start;fill:#e0941e;fill-opacity:1;fill-rule:evenodd;stroke:#e0941e;stroke-width:0;stroke-linecap:butt;stroke-linejoin:miter;stroke-miterlimit:10.43299961;stroke-dasharray:none;stroke-dashoffset:0;stroke-opacity:1" />
      <path
         d="m 572.64685,271.0043 -0.0247,0.0864 -0.0123,0.0987 -0.0247,0.0864 -0.0247,0.0987 -0.037,0.19749 -0.0494,0.19749 -0.0494,0.19748 -0.037,0.19749 -0.0494,0.19748 -0.0494,0.19749 -0.0123,0.0987 -0.0247,0.0864 -0.0247,0.0864 -0.0123,0.0864 -0.0247,0.0864 -0.0123,0.0864 -0.0123,0.0741 -0.0247,0.0741 -0.0123,0.074 -0.0123,0.0617 v 0.0617 l -0.0124,0.0494 -0.0123,0.0494 v 0.0494 0.037 0.0247 c 0,1.09851 0.864,1.66629 1.76503,1.66629 0.75291,0 1.85143,-0.48138 2.28343,-1.71566 0.13577,-0.2592 2.20937,-8.62766 2.46857,-9.72617 0.48137,-2.02423 1.59223,-6.31955 1.96251,-7.99817 0.24686,-0.78995 1.97486,-3.69052 3.43132,-5.03589 0.50605,-0.41966 2.28343,-2.02423 4.93714,-2.02423 1.57988,0 2.5056,0.72823 2.56731,0.72823 -1.82674,0.30857 -3.18445,1.80206 -3.18445,3.38194 0,0.97509 0.67885,2.16 2.3328,2.16 1.66628,0 3.38194,-1.40708 3.38194,-3.6288 0,-2.16 -1.97486,-3.98674 -5.0976,-3.98674 -4.01143,0 -6.70217,2.99931 -7.88709,4.71497 -0.48137,-2.75246 -2.70308,-4.71497 -5.59131,-4.71497 -2.81417,0 -3.98674,2.38217 -4.55451,3.48069 -1.09852,2.11062 -1.9008,5.7888 -1.9008,5.98628 0,0.61714 0.61714,0.61714 0.74057,0.61714 0.61714,0 0.67885,-0.0864 1.04914,-1.43177 1.0368,-4.35703 2.27109,-7.30697 4.4928,-7.30697 1.0368,0 1.91314,0.48137 1.91314,2.81417 0,1.296 -0.19748,1.9872 -0.98743,5.17166 z"
         id="path1378"
         inkscape:connector-curvature="0"
         style="font-style:normal;font-variant:normal;font-weight:normal;font-stretch:normal;letter-spacing:normal;word-spacing:normal;text-anchor:start;fill:#e0941e;fill-opacity:1;fill-rule:evenodd;stroke:#e0941e;stroke-width:0;stroke-linecap:butt;stroke-linejoin:miter;stroke-miterlimit:10.43299961;stroke-dasharray:none;stroke-dashoffset:0;stroke-opacity:1" />
    </g>
  </g>
</svg>
