<?xml version="1.0" encoding="UTF-8" standalone="no"?>
<!-- Created with Inkscape (http://www.inkscape.org/) -->

<svg
   xmlns:dc="http://purl.org/dc/elements/1.1/"
   xmlns:cc="http://creativecommons.org/ns#"
   xmlns:rdf="http://www.w3.org/1999/02/22-rdf-syntax-ns#"
   xmlns:svg="http://www.w3.org/2000/svg"
   xmlns="http://www.w3.org/2000/svg"
   xmlns:sodipodi="http://sodipodi.sourceforge.net/DTD/sodipodi-0.dtd"
   xmlns:inkscape="http://www.inkscape.org/namespaces/inkscape"
   width="254.12061mm"
   height="280.39984mm"
   viewBox="0 0 254.12061 280.39984"
   version="1.1"
   id="svg8"
   inkscape:version="0.92.1 r15371"
   sodipodi:docname="ArrTimes6057.svg">
  <defs
     id="defs2">
    <clipPath
       id="clipPath4643"
       clipPathUnits="userSpaceOnUse">
      <path
         inkscape:connector-curvature="0"
         id="path4641"
         d="m 88.676,412.922 h 617 v -332 h -617 z" />
    </clipPath>
    <clipPath
       id="clipPath4653"
       clipPathUnits="userSpaceOnUse">
      <path
         inkscape:connector-curvature="0"
         id="path4651"
         d="M 88,81 H 706 V 414 H 88 Z" />
    </clipPath>
    <clipPath
       id="clipPath4663"
       clipPathUnits="userSpaceOnUse">
      <path
         inkscape:connector-curvature="0"
         id="path4661"
         d="m 88.676,413.82 h 617 v -332 h -617 z" />
    </clipPath>
    <clipPath
       id="clipPath4673"
       clipPathUnits="userSpaceOnUse">
      <path
         inkscape:connector-curvature="0"
         id="path4671"
         d="M 88,81 H 706 V 414 H 88 Z" />
    </clipPath>
    <clipPath
       id="clipPath4691"
       clipPathUnits="userSpaceOnUse">
      <path
         inkscape:connector-curvature="0"
         id="path4689"
         d="m 88.676,362.922 h 617 v -282 h -617 z" />
    </clipPath>
    <clipPath
       id="clipPath4701"
       clipPathUnits="userSpaceOnUse">
      <path
         inkscape:connector-curvature="0"
         id="path4699"
         d="M 88,81 H 706 V 364 H 88 Z" />
    </clipPath>
    <clipPath
       id="clipPath4711"
       clipPathUnits="userSpaceOnUse">
      <path
         inkscape:connector-curvature="0"
         id="path4709"
         d="m 88.676,363.82 h 617 v -282 h -617 z" />
    </clipPath>
    <clipPath
       id="clipPath4721"
       clipPathUnits="userSpaceOnUse">
      <path
         inkscape:connector-curvature="0"
         id="path4719"
         d="M 88,81 H 706 V 364 H 88 Z" />
    </clipPath>
  </defs>
  <sodipodi:namedview
     id="base"
     pagecolor="#ffffff"
     bordercolor="#666666"
     borderopacity="1.0"
     inkscape:pageopacity="0.0"
     inkscape:pageshadow="2"
     inkscape:zoom="0.7"
     inkscape:cx="780.32633"
     inkscape:cy="498.85166"
     inkscape:document-units="mm"
     inkscape:current-layer="layer1"
     showgrid="false"
     fit-margin-top="0"
     fit-margin-left="0"
     fit-margin-right="0"
     fit-margin-bottom="0"
     inkscape:window-width="1920"
     inkscape:window-height="1181"
     inkscape:window-x="1596"
     inkscape:window-y="-4"
     inkscape:window-maximized="1" />
  <metadata
     id="metadata5">
    <rdf:RDF>
      <cc:Work
         rdf:about="">
        <dc:format>image/svg+xml</dc:format>
        <dc:type
           rdf:resource="http://purl.org/dc/dcmitype/StillImage" />
        <dc:title></dc:title>
      </cc:Work>
    </rdf:RDF>
  </metadata>
  <g
     inkscape:label="Calque 1"
     inkscape:groupmode="layer"
     id="layer1"
     transform="translate(-148.10636,24.628484)">
    <path
       inkscape:connector-curvature="0"
       id="path4497"
       style="fill:none;stroke:#0000ff;stroke-width:0.28222221;stroke-linecap:butt;stroke-linejoin:miter;stroke-miterlimit:4;stroke-dasharray:1.6933333, 1.6933333;stroke-dashoffset:0;stroke-opacity:1"
       d="M 270.97482,95.127014 V 231.54724" />
    <path
       inkscape:connector-curvature="0"
       id="path4499"
       style="fill:none;stroke:#0000ff;stroke-width:0.28222221;stroke-linecap:butt;stroke-linejoin:miter;stroke-miterlimit:4;stroke-dasharray:1.6933333, 1.6933333;stroke-dashoffset:0;stroke-opacity:1"
       d="M 333.10357,95.127014 V 231.54724" />
    <path
       inkscape:connector-curvature="0"
       id="path4501"
       style="fill:none;stroke:#ff0000;stroke-width:0.28222221;stroke-linecap:butt;stroke-linejoin:miter;stroke-miterlimit:4;stroke-dasharray:1.6933333, 1.6933333;stroke-dashoffset:0;stroke-opacity:1"
       d="M 270.02232,95.127014 V 231.54724" />
    <path
       inkscape:connector-curvature="0"
       id="path4503"
       style="fill:none;stroke:#ff0000;stroke-width:0.28222221;stroke-linecap:butt;stroke-linejoin:miter;stroke-miterlimit:4;stroke-dasharray:1.6933333, 1.6933333;stroke-dashoffset:0;stroke-opacity:1"
       d="M 215.89598,95.127014 V 231.54724" />
    <g
       id="g5754"
       transform="translate(-0.40090429,-0.33408691)">
      <text
         y="253.37093"
         x="261.1185"
         transform="scale(1.0000164,0.9999836)"
         style="font-variant:normal;font-weight:normal;font-size:8.68545151px;font-family:TeXGyrePagella;-inkscape-font-specification:TeXGyrePagella-Regular;writing-mode:lr-tb;fill:#000000;fill-opacity:1;fill-rule:nonzero;stroke:none;stroke-width:0.35277197"
         id="text4507">
        <tspan
           style="stroke-width:0.35277197"
           x="308.13284 310.3042"
           sodipodi:role="line"
           id="tspan4505">(</tspan>
      </text>
      <text
         y="253.37093"
         x="311.07986"
         transform="scale(1.0000164,0.99998359)"
         style="font-variant:normal;font-weight:normal;font-size:8.68545151px;font-family:TeXGyrePagella;-inkscape-font-specification:TeXGyrePagella-Regular;writing-mode:lr-tb;fill:#000000;fill-opacity:1;fill-rule:nonzero;stroke:none;stroke-width:0.35277197"
         id="text4511">
        <tspan
           style="stroke-width:0.35277197"
           x="311.07986"
           y="253.37093"
           id="tspan4509">μ</tspan>
      </text>
      <text
         y="253.37093"
         x="316.99466"
         transform="scale(1.0000164,0.99998359)"
         style="font-variant:normal;font-weight:normal;font-size:8.68545151px;font-family:TeXGyrePagella;-inkscape-font-specification:TeXGyrePagella-Regular;writing-mode:lr-tb;fill:#000000;fill-opacity:1;fill-rule:nonzero;stroke:none;stroke-width:0.35277197"
         id="text4515">
        <tspan
           style="stroke-width:0.35277197"
           x="316.99466 320.67731"
           y="253.37093"
           sodipodi:role="line"
           id="tspan4513">s)</tspan>
      </text>
    </g>
    <text
       id="text4519"
       style="font-variant:normal;font-weight:normal;font-size:8.87005138px;font-family:TeXGyrePagella;-inkscape-font-specification:TeXGyrePagella-Regular;writing-mode:lr-tb;fill:#000000;fill-opacity:1;fill-rule:nonzero;stroke:none;stroke-width:0.36026978"
       transform="matrix(0,-1.0212372,0.97920444,0,0,0)"
       x="-201.61307"
       y="161.56575">
      <tspan
         id="tspan4517"
         sodipodi:role="line"
         x="-201.61307"
         style="stroke-width:0.36026978"
         y="161.56575">Comptes par</tspan>
    </text>
    <text
       id="text4523"
       style="font-variant:normal;font-weight:normal;font-size:8.68545151px;font-family:TeXGyrePagella;-inkscape-font-specification:TeXGyrePagella-Regular;writing-mode:lr-tb;fill:#000000;fill-opacity:1;fill-rule:nonzero;stroke:none;stroke-width:0.35277197"
       transform="matrix(0,-0.99998359,1.0000164,0,0,0)"
       x="-151.28911"
       y="157.63634">
      <tspan
         id="tspan4521"
         y="157.63634"
         x="-151.28911"
         style="stroke-width:0.35277197">μ</tspan>
    </text>
    <text
       id="text4527"
       style="font-variant:normal;font-weight:normal;font-size:8.68545151px;font-family:TeXGyrePagella;-inkscape-font-specification:TeXGyrePagella-Regular;writing-mode:lr-tb;fill:#000000;fill-opacity:1;fill-rule:nonzero;stroke:none;stroke-width:0.35277197"
       transform="matrix(0,-0.99998359,1.0000164,0,0,0)"
       x="-145.37433"
       y="157.63634">
      <tspan
         id="tspan4525"
         y="157.63634"
         x="-145.37433"
         style="stroke-width:0.35277197">s</tspan>
    </text>
    <text
       id="text4547"
       style="font-variant:normal;font-weight:normal;font-size:7.20256901px;font-family:TeXGyrePagella;-inkscape-font-specification:TeXGyrePagella-Regular;writing-mode:lr-tb;fill:#000000;fill-opacity:1;fill-rule:nonzero;stroke:none;stroke-width:0.35277197"
       transform="scale(1.0000164,0.99998357)"
       x="212.29111"
       y="243.09668">
      <tspan
         id="tspan4529"
         sodipodi:role="line"
         y="243.09668"
         x="212.29111 215.8924 300.84036 304.44165 308.04291 391.08432 394.68558 398.2869"
         style="stroke-width:0.35277197">50100150</tspan>
      <tspan
         id="tspan4531"
         sodipodi:role="line"
         y="228.69153"
         x="164.73297 168.33426 170.1349"
         style="stroke-width:0.35277197">0.0</tspan>
      <tspan
         id="tspan4533"
         sodipodi:role="line"
         y="209.83775"
         x="164.73297 168.33426 170.1349"
         style="stroke-width:0.35277197">0.2</tspan>
      <tspan
         id="tspan4535"
         sodipodi:role="line"
         y="190.98398"
         x="164.73297 168.33426 170.1349"
         style="stroke-width:0.35277197">0.4</tspan>
      <tspan
         id="tspan4537"
         sodipodi:role="line"
         y="172.13019"
         x="164.73297 168.33426 170.1349"
         style="stroke-width:0.35277197">0.6</tspan>
      <tspan
         id="tspan4539"
         sodipodi:role="line"
         y="153.2764"
         x="164.73297 168.33426 170.1349"
         style="stroke-width:0.35277197">0.8</tspan>
      <tspan
         id="tspan4541"
         sodipodi:role="line"
         y="134.31671"
         x="164.73297 168.33426 170.1349"
         style="stroke-width:0.35277197">1.0</tspan>
      <tspan
         id="tspan4543"
         sodipodi:role="line"
         y="115.46293"
         x="164.73297 168.33426 170.1349"
         style="stroke-width:0.35277197">1.2</tspan>
      <tspan
         id="tspan4545"
         sodipodi:role="line"
         y="96.609131"
         x="164.73297 168.33426 170.1349"
         style="stroke-width:0.35277197">1.4</tspan>
    </text>
    <path
       inkscape:connector-curvature="0"
       id="path4549"
       style="fill:none;stroke:#000000;stroke-width:0.74144077;stroke-linecap:round;stroke-linejoin:round;stroke-miterlimit:10;stroke-dasharray:none;stroke-opacity:1"
       d="m 215.89598,235.14804 v -3.6008" />
    <path
       inkscape:connector-curvature="0"
       id="path4551"
       style="fill:none;stroke:#000000;stroke-width:0.74144077;stroke-linecap:round;stroke-linejoin:round;stroke-miterlimit:10;stroke-dasharray:none;stroke-opacity:1"
       d="m 261.01837,233.35134 v -1.8041" />
    <path
       inkscape:connector-curvature="0"
       id="path4553"
       style="fill:none;stroke:#000000;stroke-width:0.74144077;stroke-linecap:round;stroke-linejoin:round;stroke-miterlimit:10;stroke-dasharray:none;stroke-opacity:1"
       d="m 306.24695,235.14804 v -3.6008" />
    <path
       inkscape:connector-curvature="0"
       id="path4555"
       style="fill:none;stroke:#000000;stroke-width:0.74144077;stroke-linecap:round;stroke-linejoin:round;stroke-miterlimit:10;stroke-dasharray:none;stroke-opacity:1"
       d="m 351.36935,233.35134 v -1.8041" />
    <path
       inkscape:connector-curvature="0"
       id="path4557"
       style="fill:none;stroke:#000000;stroke-width:0.74144077;stroke-linecap:round;stroke-linejoin:round;stroke-miterlimit:10;stroke-dasharray:none;stroke-opacity:1"
       d="m 396.49174,235.14804 v -3.6008" />
    <path
       inkscape:connector-curvature="0"
       id="path4559"
       style="fill:none;stroke:#000000;stroke-width:0.74144077;stroke-linecap:round;stroke-linejoin:round;stroke-miterlimit:10;stroke-dasharray:none;stroke-opacity:1"
       d="M 179.77612,231.54724 H 396.49174" />
    <path
       inkscape:connector-curvature="0"
       id="path4561"
       style="fill:none;stroke:#000000;stroke-width:0.74144077;stroke-linecap:round;stroke-linejoin:round;stroke-miterlimit:10;stroke-dasharray:none;stroke-opacity:1"
       d="m 176.17532,226.78086 h 3.6008" />
    <path
       inkscape:connector-curvature="0"
       id="path4563"
       style="fill:none;stroke:#000000;stroke-width:0.74144077;stroke-linecap:round;stroke-linejoin:round;stroke-miterlimit:10;stroke-dasharray:none;stroke-opacity:1"
       d="m 177.97484,217.3564 h 1.80128" />
    <path
       inkscape:connector-curvature="0"
       id="path4565"
       style="fill:none;stroke:#000000;stroke-width:0.74144077;stroke-linecap:round;stroke-linejoin:round;stroke-miterlimit:10;stroke-dasharray:none;stroke-opacity:1"
       d="m 176.17532,207.92524 h 3.6008" />
    <path
       inkscape:connector-curvature="0"
       id="path4567"
       style="fill:none;stroke:#000000;stroke-width:0.74144077;stroke-linecap:round;stroke-linejoin:round;stroke-miterlimit:10;stroke-dasharray:none;stroke-opacity:1"
       d="m 177.97484,198.49937 h 1.80128" />
    <path
       inkscape:connector-curvature="0"
       id="path4569"
       style="fill:none;stroke:#000000;stroke-width:0.74144077;stroke-linecap:round;stroke-linejoin:round;stroke-miterlimit:10;stroke-dasharray:none;stroke-opacity:1"
       d="m 176.17532,189.0735 h 3.6008" />
    <path
       inkscape:connector-curvature="0"
       id="path4571"
       style="fill:none;stroke:#000000;stroke-width:0.74144077;stroke-linecap:round;stroke-linejoin:round;stroke-miterlimit:10;stroke-dasharray:none;stroke-opacity:1"
       d="m 177.97484,179.64904 h 1.80128" />
    <path
       inkscape:connector-curvature="0"
       id="path4573"
       style="fill:none;stroke:#000000;stroke-width:0.74144077;stroke-linecap:round;stroke-linejoin:round;stroke-miterlimit:10;stroke-dasharray:none;stroke-opacity:1"
       d="m 176.17532,170.21788 h 3.6008" />
    <path
       inkscape:connector-curvature="0"
       id="path4575"
       style="fill:none;stroke:#000000;stroke-width:0.74144077;stroke-linecap:round;stroke-linejoin:round;stroke-miterlimit:10;stroke-dasharray:none;stroke-opacity:1"
       d="m 177.97484,160.79201 h 1.80128" />
    <path
       inkscape:connector-curvature="0"
       id="path4577"
       style="fill:none;stroke:#000000;stroke-width:0.74144077;stroke-linecap:round;stroke-linejoin:round;stroke-miterlimit:10;stroke-dasharray:none;stroke-opacity:1"
       d="m 176.17532,151.36755 h 3.6008" />
    <path
       inkscape:connector-curvature="0"
       id="path4579"
       style="fill:none;stroke:#000000;stroke-width:0.74144077;stroke-linecap:round;stroke-linejoin:round;stroke-miterlimit:10;stroke-dasharray:none;stroke-opacity:1"
       d="m 177.97484,141.94168 h 1.80128" />
    <path
       inkscape:connector-curvature="0"
       id="path4581"
       style="fill:none;stroke:#000000;stroke-width:0.74144077;stroke-linecap:round;stroke-linejoin:round;stroke-miterlimit:10;stroke-dasharray:none;stroke-opacity:1"
       d="m 176.17532,132.40433 h 3.6008" />
    <path
       inkscape:connector-curvature="0"
       id="path4583"
       style="fill:none;stroke:#000000;stroke-width:0.74144077;stroke-linecap:round;stroke-linejoin:round;stroke-miterlimit:10;stroke-dasharray:none;stroke-opacity:1"
       d="m 177.97484,122.97882 h 1.80128" />
    <path
       inkscape:connector-curvature="0"
       id="path4585"
       style="fill:none;stroke:#000000;stroke-width:0.74144077;stroke-linecap:round;stroke-linejoin:round;stroke-miterlimit:10;stroke-dasharray:none;stroke-opacity:1"
       d="m 176.17532,113.55436 h 3.6008" />
    <path
       inkscape:connector-curvature="0"
       id="path4587"
       style="fill:none;stroke:#000000;stroke-width:0.74144077;stroke-linecap:round;stroke-linejoin:round;stroke-miterlimit:10;stroke-dasharray:none;stroke-opacity:1"
       d="m 177.97484,104.12849 h 1.80128" />
    <path
       inkscape:connector-curvature="0"
       id="path4589"
       style="fill:none;stroke:#000000;stroke-width:0.74144077;stroke-linecap:round;stroke-linejoin:round;stroke-miterlimit:10;stroke-dasharray:none;stroke-opacity:1"
       d="m 176.17532,94.704033 h 3.6008" />
    <path
       inkscape:connector-curvature="0"
       id="path4591"
       style="fill:none;stroke:#000000;stroke-width:0.74144077;stroke-linecap:round;stroke-linejoin:round;stroke-miterlimit:10;stroke-dasharray:none;stroke-opacity:1"
       d="M 179.77612,231.54724 V 94.704033" />
    <path
       inkscape:connector-curvature="0"
       id="path4593"
       style="fill:none;stroke:#000000;stroke-width:0.74144077;stroke-linecap:round;stroke-linejoin:round;stroke-miterlimit:10;stroke-dasharray:none;stroke-opacity:1"
       d="m 215.89598,94.704033 v 3.595511" />
    <path
       inkscape:connector-curvature="0"
       id="path4595"
       style="fill:none;stroke:#000000;stroke-width:0.74144077;stroke-linecap:round;stroke-linejoin:round;stroke-miterlimit:10;stroke-dasharray:none;stroke-opacity:1"
       d="m 261.01837,94.704033 v 1.79705" />
    <path
       inkscape:connector-curvature="0"
       id="path4597"
       style="fill:none;stroke:#000000;stroke-width:0.74144077;stroke-linecap:round;stroke-linejoin:round;stroke-miterlimit:10;stroke-dasharray:none;stroke-opacity:1"
       d="m 306.24695,94.704033 v 3.595511" />
    <path
       inkscape:connector-curvature="0"
       id="path4599"
       style="fill:none;stroke:#000000;stroke-width:0.74144077;stroke-linecap:round;stroke-linejoin:round;stroke-miterlimit:10;stroke-dasharray:none;stroke-opacity:1"
       d="m 351.36935,94.704033 v 1.79705" />
    <path
       inkscape:connector-curvature="0"
       id="path4601"
       style="fill:none;stroke:#000000;stroke-width:0.74144077;stroke-linecap:round;stroke-linejoin:round;stroke-miterlimit:10;stroke-dasharray:none;stroke-opacity:1"
       d="m 396.49174,94.704033 v 3.595511" />
    <path
       inkscape:connector-curvature="0"
       id="path4603"
       style="fill:none;stroke:#000000;stroke-width:0.74144077;stroke-linecap:round;stroke-linejoin:round;stroke-miterlimit:10;stroke-dasharray:none;stroke-opacity:1"
       d="M 179.77612,94.704033 H 396.49174" />
    <path
       inkscape:connector-curvature="0"
       id="path4605"
       style="fill:none;stroke:#000000;stroke-width:0.74144077;stroke-linecap:round;stroke-linejoin:round;stroke-miterlimit:10;stroke-dasharray:none;stroke-opacity:1"
       d="m 396.49174,226.78086 h -3.6008" />
    <path
       inkscape:connector-curvature="0"
       id="path4607"
       style="fill:none;stroke:#000000;stroke-width:0.74144077;stroke-linecap:round;stroke-linejoin:round;stroke-miterlimit:10;stroke-dasharray:none;stroke-opacity:1"
       d="m 396.49174,217.3564 h -1.79952" />
    <path
       inkscape:connector-curvature="0"
       id="path4609"
       style="fill:none;stroke:#000000;stroke-width:0.74144077;stroke-linecap:round;stroke-linejoin:round;stroke-miterlimit:10;stroke-dasharray:none;stroke-opacity:1"
       d="m 396.49174,207.92524 h -3.6008" />
    <path
       inkscape:connector-curvature="0"
       id="path4611"
       style="fill:none;stroke:#000000;stroke-width:0.74144077;stroke-linecap:round;stroke-linejoin:round;stroke-miterlimit:10;stroke-dasharray:none;stroke-opacity:1"
       d="m 396.49174,198.49937 h -1.79952" />
    <path
       inkscape:connector-curvature="0"
       id="path4613"
       style="fill:none;stroke:#000000;stroke-width:0.74144077;stroke-linecap:round;stroke-linejoin:round;stroke-miterlimit:10;stroke-dasharray:none;stroke-opacity:1"
       d="m 396.49174,189.0735 h -3.6008" />
    <path
       inkscape:connector-curvature="0"
       id="path4615"
       style="fill:none;stroke:#000000;stroke-width:0.74144077;stroke-linecap:round;stroke-linejoin:round;stroke-miterlimit:10;stroke-dasharray:none;stroke-opacity:1"
       d="m 396.49174,179.64904 h -1.79952" />
    <path
       inkscape:connector-curvature="0"
       id="path4617"
       style="fill:none;stroke:#000000;stroke-width:0.74144077;stroke-linecap:round;stroke-linejoin:round;stroke-miterlimit:10;stroke-dasharray:none;stroke-opacity:1"
       d="m 396.49174,170.21788 h -3.6008" />
    <path
       inkscape:connector-curvature="0"
       id="path4619"
       style="fill:none;stroke:#000000;stroke-width:0.74144077;stroke-linecap:round;stroke-linejoin:round;stroke-miterlimit:10;stroke-dasharray:none;stroke-opacity:1"
       d="m 396.49174,160.79201 h -1.79952" />
    <path
       inkscape:connector-curvature="0"
       id="path4621"
       style="fill:none;stroke:#000000;stroke-width:0.74144077;stroke-linecap:round;stroke-linejoin:round;stroke-miterlimit:10;stroke-dasharray:none;stroke-opacity:1"
       d="m 396.49174,151.36755 h -3.6008" />
    <path
       inkscape:connector-curvature="0"
       id="path4623"
       style="fill:none;stroke:#000000;stroke-width:0.74144077;stroke-linecap:round;stroke-linejoin:round;stroke-miterlimit:10;stroke-dasharray:none;stroke-opacity:1"
       d="m 396.49174,141.94168 h -1.79952" />
    <path
       inkscape:connector-curvature="0"
       id="path4625"
       style="fill:none;stroke:#000000;stroke-width:0.74144077;stroke-linecap:round;stroke-linejoin:round;stroke-miterlimit:10;stroke-dasharray:none;stroke-opacity:1"
       d="m 396.49174,132.40433 h -3.6008" />
    <path
       inkscape:connector-curvature="0"
       id="path4627"
       style="fill:none;stroke:#000000;stroke-width:0.74144077;stroke-linecap:round;stroke-linejoin:round;stroke-miterlimit:10;stroke-dasharray:none;stroke-opacity:1"
       d="m 396.49174,122.97882 h -1.79952" />
    <path
       inkscape:connector-curvature="0"
       id="path4629"
       style="fill:none;stroke:#000000;stroke-width:0.74144077;stroke-linecap:round;stroke-linejoin:round;stroke-miterlimit:10;stroke-dasharray:none;stroke-opacity:1"
       d="m 396.49174,113.55436 h -3.6008" />
    <path
       inkscape:connector-curvature="0"
       id="path4631"
       style="fill:none;stroke:#000000;stroke-width:0.74144077;stroke-linecap:round;stroke-linejoin:round;stroke-miterlimit:10;stroke-dasharray:none;stroke-opacity:1"
       d="m 396.49174,104.12849 h -1.79952" />
    <path
       inkscape:connector-curvature="0"
       id="path4633"
       style="fill:none;stroke:#000000;stroke-width:0.74144077;stroke-linecap:round;stroke-linejoin:round;stroke-miterlimit:10;stroke-dasharray:none;stroke-opacity:1"
       d="m 396.49174,94.704033 h -3.6008" />
    <path
       inkscape:connector-curvature="0"
       id="path4635"
       style="fill:none;stroke:#000000;stroke-width:0.74144077;stroke-linecap:round;stroke-linejoin:round;stroke-miterlimit:10;stroke-dasharray:none;stroke-opacity:1"
       d="M 396.49174,231.54724 V 94.704033" />
    <g
       transform="matrix(0.35277777,0,0,0.35276613,148.06881,-24.851755)"
       id="g4677">
      <path
         inkscape:connector-curvature="0"
         id="path4679"
         style="fill:none;stroke:#ff0000;stroke-width:1.50125504;stroke-linecap:round;stroke-linejoin:round;stroke-miterlimit:10;stroke-dasharray:none;stroke-opacity:1"
         d="m 89.578,713.313 h 1.203 l 0.301,-0.598 0.598,0.598 h 0.601 l 0.301,-0.297 0.602,0.297 h 0.898 l 0.602,-0.297 0.601,0.297 h 0.899 l 0.601,-0.598 0.602,0.598 0.301,-0.297 h 0.597 l 0.602,0.297 h 7.508 l 0.597,-0.598 0.602,0.598 h 0.902 l 0.602,-0.598 0.597,0.598 h 1.801 l 0.602,-0.598 0.601,0.301 0.602,0.297 h 0.297 l 0.601,-0.598 0.602,0.301 0.301,0.297 0.601,-0.598 0.598,0.598 0.601,-0.598 0.301,0.598 h 1.199 l 0.301,-0.297 0.602,0.297 h 2.703 l 0.301,-0.598 0.597,0.598 0.602,-0.598 h 0.301 l 0.601,0.598 h 0.598 l 0.301,-1.497 0.601,0.899 h 1.199 l 0.301,0.598 0.602,-0.598 0.601,0.301 0.301,0.297 0.598,-0.598 0.601,0.301 0.602,-0.301 h 0.301 l 0.597,0.598 0.602,-0.297 0.301,0.297 h 0.601 l 0.598,-0.899 0.301,0.602 0.601,-0.301 0.602,0.598 h 2.101 l 0.301,-0.297 h 0.598 l 0.601,-0.301 h 0.602 l 0.301,0.301 h 0.597 l 0.602,-0.301 h 0.301 l 0.601,0.301 0.598,-0.301 0.301,0.598 0.601,-0.297 0.602,-0.301 0.597,0.301 0.301,-0.301 0.602,0.301 h 0.601 l 0.301,0.297 0.598,-0.899 1.203,0.602 0.301,-0.602 0.597,0.602 0.602,0.297 h 0.301 l 0.601,-1.497 0.598,0.899 h 0.902 l 0.602,0.301 0.601,-0.899 0.297,0.899 0.602,-0.602 0.601,-0.598 0.301,0.899 h 0.598 l 0.601,0.301 0.602,0.297 0.301,-1.497 0.601,1.497 0.598,-0.598 0.301,-0.899 0.601,0.598 0.602,0.301 0.297,-0.301 0.601,-0.297 0.602,-0.301 0.601,0.301 0.297,0.598 h 0.602 l 0.601,0.301 0.301,-1.2 0.602,0.899 h 0.597 l 0.301,-0.598 0.602,-0.902 0.601,0.601 0.598,-1.5 0.301,1.5 0.601,0.301 0.602,-0.301 0.297,-0.898 h 0.601 l 0.602,1.496 0.601,0.301 0.301,-1.199 h 0.598 l 0.601,0.898 0.301,-0.598 0.602,-1.5 0.597,1.5 0.301,0.301 0.602,-1.199 0.601,0.898 0.598,-1.5 0.301,1.5 0.601,-1.199 0.602,-0.301 0.301,1.5 0.597,-1.8 0.602,1.5 h 0.601 l 0.301,-0.301 0.598,0.301 0.601,0.601 0.301,-1.801 h 0.602 l 0.597,1.801 0.301,-0.902 h 1.203 l 0.598,-0.899 0.301,0.301 h 1.203 l 0.301,0.899 0.597,-3.297 0.602,0.601 0.602,2.395 0.3,-1.797 0.598,1.199 0.602,-2.098 0.3,1.196 0.602,0.601 0.598,-1.199 0.3,1.199 0.602,-0.601 0.601,1.5 0.598,-2.996 0.301,0.3 h 0.601 l 0.602,0.598 0.301,-0.297 0.597,-0.601 0.602,-0.618 0.301,1.516 0.601,-0.898 0.598,0.898 0.602,-3.617 0.3,2.101 0.602,-0.898 0.601,1.516 0.297,0.3 0.602,-0.918 0.601,-1.199 h 0.602 l 0.297,0.301 h 0.601 l 0.602,0.598 0.301,-0.598 0.597,-0.602 h 0.602 l 0.301,1.2 h 0.601 l 0.602,1.816 0.598,-1.516 0.3,-2.699 0.602,-1.199 0.601,2.398 0.297,0.602 0.602,1.195 h 1.203 l 0.297,-1.797 0.601,-2.097 0.602,1.797 0.301,0.601 0.601,1.199 0.598,0.618 0.301,-2.719 0.601,-3.297 0.602,-0.301 h 0.598 l 0.3,-0.297 0.602,0.899 0.602,1.5 0.296,-0.903 0.602,-0.597 0.602,0.597 0.601,-3.297 0.301,-0.898 0.598,-2.098 0.601,2.399 0.301,2.398 0.601,-2.101 0.598,2.101 0.301,-6.016 0.601,2.118 h 0.602 l 0.598,0.902 0.3,-4.219 0.602,1.199 0.602,-1.496 0.3,-1.801 0.598,-3.597 0.602,0.597 0.3,-5.711 0.602,5.114 0.598,-2.399 0.601,1.801 0.301,-5.114 0.601,-5.398 0.598,-2.399 0.301,7.497 0.601,-0.602 0.602,4.817 0.598,-0.903 0.3,-2.414 0.602,-6.293 0.602,-0.301 0.3,2.098 0.598,6.91 0.602,-7.211 0.3,2.996 h 0.602 l 0.598,-0.3 0.601,-4.493 0.301,4.192 0.601,-2.696 0.598,6.016 0.301,-4.816 0.601,-1.5 0.602,-7.512 0.602,1.5 0.296,8.414 0.602,3.594 0.602,-7.793 0.3,-0.903 h 0.598 l 0.602,-5.41 0.3,3.016 0.602,2.097 0.598,-5.715 0.601,-5.094 0.301,-15.008 0.602,11.411 0.601,-1.219 0.297,0.918 0.602,-12.329 0.601,-19.504 0.602,9.309 0.297,-8.11 0.601,-11.11 0.602,6.614 0.3,-21.923 0.598,-1.199 0.602,-12.309 0.3,2.699 0.602,-24.321 0.602,-26.716 0.597,4.793 0.301,4.497 0.602,15.028 0.601,7.195 0.297,-9.61 0.602,5.712 0.601,-14.708 0.602,-17.126 0.297,-15.906 0.601,-6.915 0.602,-44.72 0.3,37.228 0.602,-0.598 0.598,-21.024 0.3,-60.349 0.602,-41.744 0.602,46.541 0.597,48.642 0.301,1.496 0.602,24.02 0.601,16.227 0.301,-24.02 0.598,6.293 0.601,42.345 0.301,14.106 0.601,-22.219 0.598,-13.508 0.602,-12.313 0.3,18.309 0.602,16.524 0.598,-7.215 0.3,25.817 0.602,15.329 0.602,-12.61 0.597,-12.008 0.301,-12.911 0.602,21.305 0.601,17.724 0.301,-10.212 0.598,-9.012 0.601,23.118 0.301,22.525 0.602,18.621 0.597,13.508 0.602,2.098 0.301,-5.414 0.601,4.817 0.598,-4.497 0.301,4.196 0.601,-14.708 0.602,-21.321 0.597,-9.91 0.301,22.219 0.602,-14.707 0.601,18.305 0.301,-8.114 0.598,-5.996 h 0.601 l 0.301,16.509 0.602,5.113 0.597,-4.215 0.602,-5.094 0.301,-3.598 0.601,7.794 0.598,-4.497 0.301,13.509 0.601,-3.297 0.602,-11.114 0.601,6.914 0.297,6.598 0.602,-11.114 0.601,17.427 0.301,10.793 0.598,-4.797 0.601,4.797 0.301,14.727 0.602,4.793 0.597,-12.906 0.602,0.898 0.301,1.199 0.601,-4.496 0.602,-18.024 0.297,2.117 0.601,-3.316 0.602,17.422 0.3,3.899 0.598,-3.899 0.602,-3.316 0.601,0.301 0.301,2.117 0.598,6.895 0.601,1.8 0.301,12.907 0.602,-8.692 0.601,-1.5 0.598,7.196 0.301,2.996 0.601,-2.695 0.602,3.914 0.297,4.199 0.601,-2.398 0.602,5.394 0.301,7.813 0.601,0.598 0.598,-6.313 0.601,-4.496 0.301,-6.614 0.602,1.516 0.597,10.196 0.301,5.113 0.602,-10.809 0.601,-9.914 0.598,2.398 0.301,5.415 0.601,0.3 0.602,3.297 0.301,8.415 0.597,-3.317 0.602,1.817 0.301,-3.016 0.601,2.719 0.598,0.894 0.601,-4.816 0.301,6.918 0.602,0.598 0.597,-3 0.301,4.5 0.602,-4.797 0.601,1.199 0.598,5.395 0.301,-2.399 0.601,1.5 0.602,-3.598 0.301,-0.597 0.597,0.3 h 0.602 l 0.301,4.493 0.601,-0.598 0.598,2.399 0.601,1.199 0.301,3.918 0.602,-5.715 0.597,4.215 0.301,-3.317 0.602,1.497 0.902,-2.696 0.598,2.395 0.601,-3.594 0.602,1.5 0.301,-3.301 0.597,7.813 0.602,-2.715 0.301,-1.5 0.601,3.016 0.598,-4.516 0.601,3.898 0.301,-1.496 h 0.602 l 0.597,-3.598 0.301,-0.902 0.602,-0.598 0.601,2.997 0.301,-3.895 0.598,4.496 0.601,-1.5 0.602,6.016 0.301,-3.016 0.597,-0.902 0.602,-3.297 0.301,5.695 0.601,1.52 0.598,2.098 0.601,-2.399 0.301,-3.914 0.602,-1.801 0.601,6.313 0.297,-0.598 0.602,2.696 0.601,-5.114 0.301,4.516 0.598,-1.797 0.601,0.297 0.602,1.203 0.301,2.098 0.597,-4.5 h 0.903 l 0.601,1.5 0.602,1.797 0.597,1.203 0.301,-0.602 0.602,-4.215 0.601,0.317 0.297,3 0.602,-1.801 0.601,3.301 0.301,-3.598 0.602,1.5 0.597,-3.918 0.602,5.414 0.301,-2.996 0.601,2.098 0.598,0.297 0.301,1.8 0.601,0.598 0.602,1.5 0.597,1.797 0.301,-2.098 0.602,0.602 0.601,-1.199 0.301,-1.496 0.598,2.093 0.601,1.5 0.301,-3.297 0.602,3.297 h 0.597 l 0.602,2.399 0.301,-3.297 0.601,2.398 0.598,-1.5 0.301,0.598 0.601,-1.195 0.602,-3.297 0.301,2.996 0.597,2.098 0.602,-3.598 0.601,-0.598 0.301,-1.5 0.598,2.996 0.601,-1.797 0.301,1.797 0.602,0.602 0.597,-2.996 0.602,0.898 0.301,1.496 0.601,2.399 0.598,-2.098 0.301,-2.394 0.601,0.597 0.602,1.496 0.301,-0.297 0.597,-1.796 0.602,2.394 0.601,2.399 0.301,-2.7 0.598,-0.898 0.601,-4.496 0.301,5.394 0.602,-2.394 0.597,0.898 0.602,-0.898 0.301,-0.301 0.601,1.199 0.598,2.399 0.301,-1.2 0.601,-3.3 0.602,0.902 0.301,1.797 0.597,-0.598 0.602,-0.301 0.601,1.5 0.301,1.797 0.598,-3.894 0.601,1.195 0.301,-1.195 0.602,4.492 0.597,-0.598 0.602,-2.097 0.301,0.597 h 0.601 l 0.602,2.7 0.297,-3.899 0.601,1.5 0.602,-3.898 0.301,4.8 0.597,-1.8 0.602,-0.301 0.602,0.301 0.3,-0.602 0.602,0.301 0.598,-2.996 0.3,-0.598 0.602,1.195 0.601,2.098 0.297,3.297 0.602,-0.598 0.601,-2.398 0.602,-2.996 0.297,4.797 0.601,-2.7 0.602,2.098 0.301,0.301 0.601,0.898 0.598,0.301 0.602,-1.801 0.3,-0.597 0.602,0.597 0.598,0.602 0.3,-2.098 0.602,1.496 0.601,-0.898 h 0.297 l 0.602,0.898 0.601,-1.797 0.602,0.598 0.301,2.102 0.597,-1.801 0.602,-0.301 0.301,0.902 0.601,1.797 0.598,0.598 0.602,-0.297 0.3,1.199 0.602,-0.601 0.598,-0.301 0.3,-2.395 0.602,0.598 0.601,1.199 0.301,0.598 0.598,1.504 0.601,-2.399 h 0.602 l 0.301,1.497 0.597,-1.797 0.602,1.195 h 0.301 l 0.601,0.602 0.598,-0.301 0.602,-0.301 0.3,-1.195 0.602,0.597 0.598,-1.5 0.3,1.5 0.602,1.801 0.602,-0.301 0.3,-0.902 0.598,-1.797 0.602,1.5 0.601,-3.297 0.301,4.196 0.598,-1.2 0.601,-0.898 0.301,1.199 0.601,-1.199 0.598,0.898 0.301,1.801 0.601,-3.598 0.602,-0.601 0.598,4.5 0.3,-2.102 0.602,0.598 0.602,-0.598 0.3,0.899 0.598,-0.598 0.602,-1.801 0.601,0.602 0.301,1.496 0.598,-0.895 0.601,0.297 0.301,-0.898 0.601,-0.602 0.602,0.602 0.297,-1.199 0.601,0.597 0.602,2.7 0.602,-3.598 0.296,0.898 0.602,-1.496 0.602,0.598 0.3,1.5 0.598,0.898 0.602,-1.199 0.601,-2.695 0.301,1.797 0.601,1.199" />
    </g>
    <g
       transform="matrix(0.35277777,0,0,0.35276613,148.06881,-24.851755)"
       id="g4681">
      <path
         inkscape:connector-curvature="0"
         id="path4683"
         style="fill:none;stroke:#ff0000;stroke-width:1.50125504;stroke-linecap:round;stroke-linejoin:round;stroke-miterlimit:10;stroke-dasharray:none;stroke-opacity:1"
         d="m 447.48,703.703 0.598,-1.5 0.301,1.801 0.601,0.898 0.602,-1.801 0.297,3.301 0.601,-2.398 0.602,-0.903 0.602,-1.797 0.296,5.399 0.602,-4.5 0.602,2.996 0.3,-2.996 0.602,2.996 0.598,-5.094 0.601,3.297 0.301,2.399 0.602,-2.399 0.597,-0.598 0.301,0.899 0.602,-2.996 0.601,0.301 0.297,2.695 h 0.602 l 0.601,1.797 0.602,-1.496 0.3,-2.399 0.598,2.996 0.602,-2.996 0.3,1.496 0.602,2.098 0.598,-0.297 0.601,-4.195 0.301,4.492 0.602,-2.098 0.597,2.098 h 0.301 l 0.602,-0.297 0.601,-0.898 0.301,-0.903 0.598,1.801 0.601,1.5 0.602,1.199 0.3,-2.101 0.598,-2.996 0.602,4.199 0.3,1.516 0.602,-3.02 0.598,0.902 0.3,1.5 0.602,-1.8 0.602,-0.602 0.597,0.301 0.301,-2.098 0.602,2.399 0.601,1.199 0.301,-2.098 0.598,2.399 0.601,-2.7 0.602,2.102 h 1.8 l 0.602,-0.902 0.598,0.601 h 0.3 l 0.602,-1.203 0.602,-0.598 0.601,1.2 0.297,1.5 0.602,-1.2 0.601,0.602 0.301,-3.301 0.598,3.899 0.601,-0.899 0.602,1.817 0.301,-2.418 h 0.597 l 0.602,1.199 0.301,-2.098 0.601,-1.801 0.602,1.5 0.297,2.102 0.601,-1.203 0.602,-3.598 0.601,4.801 0.297,-0.301 0.602,-1.5 0.601,0.297 0.301,2.102 0.598,-1.5 0.601,-0.899 0.602,0.297 h 0.301 l 0.601,-0.598 0.598,2.102 0.301,-3 0.601,1.797 0.602,-0.301 0.297,2.102 0.601,-3.297 0.602,2.699 0.601,0.898 0.297,-1.8 0.602,2.418 0.601,-3.02 0.301,0.602 h 1.199 l 0.301,0.902 0.602,-2.102 h 0.601 l 0.598,-0.297 0.301,0.297 0.601,2.102 0.602,-1.504 h 0.3 l 0.598,-1.797 0.602,1.797 0.601,0.602 0.301,-0.602 h 0.598 l 0.601,-2.395 0.301,1.5 0.602,2.696 0.597,-1.5 0.301,-2.996 0.602,3.297 0.601,-0.301 0.598,-2.996 0.301,2.996 0.601,-1.797 0.602,3.898 0.301,-1.5 0.597,-1.5 0.602,2.399 0.601,-2.098 0.301,2.098 0.598,-1.5 0.601,3.019 0.301,-4.816 0.602,3.898 0.597,1.219 0.301,-3.621 0.602,1.504 0.601,-1.203 0.598,0.902 0.301,-1.801 0.601,4.817 0.602,-3.016 0.301,0.899 0.597,0.918 0.602,-1.817 0.601,-1.801 0.301,-1.199 0.598,4.817 0.601,-0.618 0.301,-1.8 0.602,0.902 0.597,-2.102 0.301,1.2 0.602,0.601 0.601,-1.203 0.602,0.902 0.297,1.2 0.601,-2.7 0.602,2.102 0.301,-0.602 0.597,-0.601 0.602,1.203 0.301,1.516 0.601,-0.918 0.598,-1.801 0.601,2.398 0.301,-3.297 0.602,3.297 0.601,-0.597 0.297,-1.2 0.602,-0.902 0.601,2.102 h 0.602 l 0.297,-3.899 0.601,1.797 0.602,0.902 0.301,0.602 h 0.597 l 0.602,2.715 0.301,-3.016 0.601,-1.5 0.602,2.399 0.597,-3.297 0.301,3.597 0.602,-2.402 0.601,1.203 0.297,-0.301 0.602,0.602 h 0.601 l 0.602,0.598 0.301,0.918 0.597,-4.516 0.602,3 0.301,0.598 0.601,0.597 0.598,-1.496 h 0.301 l 0.601,-1.203 0.602,1.504 0.597,0.598 0.301,-2.399 0.602,0.899 0.601,2.418 h 0.301 l 0.598,-3.02 0.601,1.203 0.602,0.301 0.301,-1.203 0.597,-0.301 0.602,-0.598 0.301,1.5 0.601,-0.601 0.598,-0.301 0.301,2.102 0.601,-1.2 0.602,-0.3 0.597,-1.2 0.301,2.7 0.602,-4.2 0.601,5.118 0.301,-1.516 h 0.598 l 0.601,-0.902 0.602,-0.602 0.301,1.203 h 0.597 l 0.602,1.199 0.301,0.297 0.601,-1.195 0.598,-2.399 0.301,1.497 0.601,1.199 h 0.602 l 0.597,-0.899 0.301,0.602 h 0.602 l 0.601,-2.102 h 0.301 l 0.598,2.7 0.601,-1.801 0.301,1.801 0.602,-2.399 0.597,-0.301 h 0.602 l 0.301,1.5 0.601,-0.3 0.598,2.418 0.301,-0.918 0.601,-3.598 0.602,3 0.601,0.598 0.297,-0.899 0.602,0.301 0.601,1.816 0.301,-1.519 0.598,0.601 0.601,-0.3 0.301,0.918 0.602,-0.918 0.597,-0.899 0.602,1.199 0.301,-0.3 0.601,-2.399 0.602,0.899 0.297,-2.399 0.601,3.301 0.602,-0.902 0.601,0.902 0.297,1.516 0.602,-1.516 0.902,-0.902 0.598,3.019 0.601,-0.601 0.301,-1.817 0.602,0.899 0.601,-0.598 0.598,1.516 0.301,-0.618 0.601,-2.101 0.602,1.801 0.297,1.218 0.601,-2.117 0.602,0.301 0.601,-0.602 h 0.301 l 0.598,0.301 0.601,1.199 0.301,-2.699 0.602,1.199 h 0.597 l 0.301,0.899 0.602,-0.297 0.601,1.195 0.598,-1.195 h 1.504 l 0.301,-0.902 0.597,-0.301 0.602,2.398 0.301,-0.297 0.601,0.618 h 0.598 l 0.602,-3.618 0.3,3 0.602,-0.898 0.598,0.297 0.3,-2.098 0.602,3.317 0.601,-4.516 0.598,3 0.301,-0.902 0.601,0.902 h 0.602 l 0.301,0.598 0.597,-1.5 0.602,0.902 0.301,-0.301 0.601,0.301 0.598,0.598 h 0.602 l 0.3,-2.7 0.602,1.5 0.598,1.2 h 0.3 l 0.602,-0.598 0.601,0.297 0.598,0.301 0.301,-0.598 0.601,-0.301 0.602,0.598 0.301,0.301 0.597,0.918 0.602,-2.418 0.301,1.5 0.601,-0.598 0.598,0.598 0.602,-1.5 0.3,1.199 0.602,-0.899 0.598,0.602 0.3,-0.902 0.602,0.3 0.601,-0.3 h 0.602 l 0.297,-2.399 0.601,4.817 0.602,-3.02 0.301,2.699 0.597,-2.699 h 0.602 l 0.301,0.602 0.601,0.3 0.598,-0.902 0.602,3.02 0.3,-3.02 0.602,0.902 0.602,2.418 0.296,-1.519 0.602,2.715 0.602,-3.614 0.3,1.5 0.598,-1.199 0.602,1.199 0.601,-0.3 0.301,1.218 0.601,-0.3 0.598,0.601 0.301,-0.601 0.601,-0.918 h 0.602 l 0.598,-0.899 0.3,0.301 0.602,-0.902 h 0.602 l 0.296,-0.602 0.602,1.504 0.602,0.598 h 0.3 l 0.602,1.519 0.598,-0.922 0.601,0.321 0.301,-0.321 0.601,0.321 0.598,-2.118 0.301,0.602 0.601,1.516 0.602,-1.516 0.598,0.598 h 0.902 l 0.602,-0.899 0.3,0.899 0.598,-1.5 0.602,2.418 0.3,-1.817 h 1.2 l 0.601,0.598 0.301,-1.199 0.601,-0.301 0.598,-0.598 0.301,0.899 0.601,0.902 0.602,1.816 h 0.598 l 0.3,-0.3 0.602,-0.321 0.602,-2.699 0.3,3.02 0.598,-1.516 0.602,-0.902 0.3,2.418 0.602,0.3 0.598,0.899 0.601,-0.301 0.301,-0.898 0.602,-1.516 0.597,0.598 0.301,-0.899 0.602,0.899 0.601,0.918 0.598,0.3 0.301,-1.218 0.601,-1.801 0.602,0.601 0.3,1.5 0.598,-0.601 0.602,-0.598 0.3,-4.199 0.602,5.695 0.598,-0.597 0.601,-0.301 0.301,-1.199 0.602,3.019 0.597,-1.519 0.301,0.597 0.602,-0.597 0.601,0.918 0.301,-1.817 h 0.598 l 0.601,0.899 0.602,0.918 0.3,0.3 0.598,-0.918 0.602,-1.8 0.3,0.601 0.602,-0.301 0.602,2.118 0.597,-3.02 0.301,0.602 0.602,0.601 0.601,-1.203 0.297,1.504 h 0.602 l 0.601,0.297 0.301,0.601 0.598,-0.3 0.601,0.3 0.602,-2.101 0.3,0.601 0.602,-0.902 0.598,-0.297 0.3,0.899 0.602,-0.602 0.602,2.102 0.597,-0.598 0.301,1.816 0.602,-1.519 0.601,-1.801 0.297,1.504 0.602,-0.602 0.601,0.301 0.301,0.301 0.602,0.598 0.597,0.918 0.602,-1.516 0.301,-2.699 0.601,2.097 0.598,0.602 0.301,-0.602 0.601,1.2 0.602,-2.102 0.597,1.801 0.301,-0.297 0.602,-0.602 0.601,1.5 0.301,-2.699 0.598,0.899 0.601,-0.602 0.301,1.801 0.602,-2.098 0.597,3.317" />
    </g>
    <g
       transform="matrix(0.35277777,0,0,0.35276613,148.06881,-24.851755)"
       id="g4725">
      <path
         inkscape:connector-curvature="0"
         id="path4727"
         style="fill:none;stroke:#0000ff;stroke-width:1.50125504;stroke-linecap:round;stroke-linejoin:round;stroke-miterlimit:10;stroke-dasharray:none;stroke-opacity:1"
         d="m 89.578,713.313 h 4.504 l 0.602,-0.297 0.601,0.297 0.598,-0.297 0.301,0.297 h 5.105 l 0.602,-0.297 0.597,0.297 h 4.504 l 0.602,-0.297 0.601,0.297 h 1.801 l 0.602,-0.297 0.601,0.297 h 6.606 l 0.597,-0.297 0.301,0.297 0.602,-0.297 0.601,0.297 h 2.403 l 0.597,-0.598 0.602,0.598 h 1.801 l 0.601,-0.598 0.602,0.598 0.597,-0.297 h 0.903 l 0.601,0.297 h 0.899 l 0.601,-0.297 0.602,0.297 0.301,-0.297 0.597,0.297 0.602,-0.297 h 0.301 l 0.601,0.297 0.598,-0.297 h 1.504 l 0.597,0.297 h 0.903 l 0.601,-0.297 0.301,0.297 0.598,-0.297 0.601,0.297 h 0.602 l 0.301,-0.297 0.597,0.297 0.602,-0.598 h 1.801 l 0.601,0.598 h 1.199 l 0.301,-0.598 h 1.203 l 0.301,0.598 0.598,-0.297 0.601,-0.301 h 0.602 l 0.301,0.301 0.597,0.297 0.602,-0.297 0.301,-0.301 0.601,0.598 h 0.899 l 0.601,-0.598 h 1.203 l 0.297,0.598 0.602,-0.598 0.601,0.598 h 0.301 l 0.598,-0.297 0.601,0.297 h 0.602 l 0.301,-0.598 0.601,-0.301 0.598,0.899 0.301,-0.297 0.601,-0.301 h 0.602 l 0.297,0.301 0.601,-1.2 0.602,0.899 0.601,0.301 0.297,-0.301 h 0.602 l 0.601,0.598 0.301,-1.196 0.602,0.598 0.898,-0.899 0.602,0.899 h 1.199 l 0.301,-0.301 0.601,0.301 h 0.602 l 0.297,-0.899 0.601,0.899 h 1.504 l 0.598,-0.899 0.601,0.899 0.301,-0.301 h 0.602 l 0.597,0.899 0.301,-0.899 0.602,-0.898 0.601,0.898 0.598,-1.199 0.301,1.199 0.601,-0.297 0.602,0.297 0.301,0.301 0.597,-0.598 0.602,0.598 0.601,-0.598 0.301,-0.301 0.598,0.598 0.601,0.301 0.301,-0.899 0.602,0.899 0.597,-0.899 0.301,0.899 h 0.602 l 0.601,-0.899 0.598,1.497 0.301,-0.899 0.601,-0.598 h 0.602 l 0.301,1.2 0.597,-1.801 h 0.602 l 0.602,0.902 0.3,-0.902 0.598,0.301 0.602,0.601 0.3,-0.301 h 1.2 l 0.3,0.899 0.602,-1.199 0.601,0.3 0.598,0.301 0.301,-0.902 0.601,-0.297 0.602,0.898 0.301,0.301 0.597,-0.601 0.602,0.3 0.301,-1.5 h 0.601 l 0.598,0.602 h 0.602 l 0.3,0.297 0.602,-0.899 0.601,0.899 0.297,-0.297 0.602,-0.301 0.601,1.199 0.602,-0.898 h 0.297 l 0.601,-0.602 0.602,0.899 0.301,-0.598 0.597,0.598 0.602,-2.098 0.301,2.098 0.601,0.902 0.602,-0.301 h 0.598 l 0.3,-0.601 0.602,0.601 0.601,-1.199 0.297,-0.601 0.602,1.5 0.601,-0.598 0.602,0.598 0.297,-1.5 0.601,-0.598 0.602,1.797 0.301,-1.199 0.601,1.199 0.598,0.601 0.301,-1.5 0.601,-0.3 0.602,0.3 0.598,-2.097 0.3,2.398 0.602,-2.098 0.602,0.598 0.296,0.598 0.602,-0.895 0.602,0.895 0.601,-0.598 0.301,0.899 0.598,-4.817 0.601,2.402 0.301,1.516 h 0.601 l 0.598,-1.516 0.301,-0.3 0.601,-2.102 0.602,1.504 0.598,-0.902 0.3,2.097 0.602,-1.797 0.602,0.602 h 0.3 l 0.598,-5.996 0.602,1.496 0.3,2.398 0.602,0.301 0.598,-1.199 0.601,0.898 0.301,0.598 0.601,-4.191 0.598,-0.602 0.301,-0.301 0.601,2.699 0.602,-2.097 0.598,-0.903 0.3,1.801 0.602,0.598 0.602,0.601 0.3,-0.601 0.598,1.5 0.602,-3.598 0.3,2.699 0.602,2.395 0.598,-3.594 h 0.601 l 0.301,0.598 0.601,0.898 h 0.598 l 0.301,2.399 0.601,-0.899 0.602,-2.398 0.602,2.398 0.296,-0.898 0.602,2.398 0.602,-4.496 0.3,1.797 0.598,1.199 0.602,0.598 0.3,-0.598 0.602,0.598 0.598,-2.695 0.601,0.597 0.301,-2.093 0.602,1.195 0.601,1.801 0.297,0.597 0.602,-2.996 0.601,-2.398 0.602,3.597 0.297,-2.398 0.601,-1.199 0.602,-1.5 0.3,1.5 0.598,-1.5 0.602,3.898 0.3,-3.598 0.602,0.602 h 0.602 l 0.597,-0.301 0.301,-0.301 0.602,-1.8 0.601,4.5 0.297,-1.5 0.602,-1.5 0.601,4.496 0.602,-1.496 0.297,-3 0.601,-2.719 0.602,0.601 h 0.3 l 0.602,5.419 0.598,-4.801 0.3,-5.114 0.602,-4.797 0.602,3.899 0.597,3.597 0.301,-0.898 0.602,-0.301 0.601,5.114 0.301,0.601 0.598,-4.816 0.601,4.515 0.301,1.797 0.601,0.301 0.598,-2.098 0.602,-2.117 0.3,3.614 0.602,-2.395 0.598,-1.52 0.3,4.516 0.602,-1.797 0.602,1.196 0.597,-2.696 h 0.301 l 0.602,-0.601 0.601,3 0.301,-2.7 0.598,2.102 0.601,-3.02 0.301,6.016 0.602,2.699 h 0.597 l 0.602,1.497 0.301,-0.602 0.601,-3.895 0.598,3.297 0.301,-1.199 0.601,-2.695 0.602,-0.602 0.597,-1.199 0.301,0.301 0.602,0.898 0.601,2.699 h 0.301 l 0.598,-2.699 0.601,0.602 0.301,1.797 0.602,-2.7 0.597,-0.597 0.602,1.5 0.301,-3 0.601,1.5 0.598,1.801 0.301,-0.903 0.601,2.699 0.602,-5.695 0.601,5.094 0.297,-2.996 0.602,3.894 0.601,0.602 0.301,-2.098 0.598,0.297 0.601,1.801 0.301,1.199 0.602,-1.5 0.597,-1.199 0.602,1.199 0.301,3.899 0.601,-2.102 0.602,-1.496 0.297,-0.899 0.601,-2.097 0.602,2.996 0.3,0.898 0.598,0.598 0.602,-3.895 h 0.601 l 0.301,3 0.598,-0.902 0.601,0.301 0.301,0.301 0.602,1.797 0.601,-1.497 0.598,1.196 0.301,2.719 0.601,-3.02 h 0.602 l 0.297,1.203 0.601,-0.601 0.602,3.019 0.301,-3.621 0.601,0.902 0.598,1.2 0.601,-3.598 0.301,-0.301 0.602,1.199 0.597,0.598 0.301,1.504 0.602,-1.504 0.601,-4.492 0.598,3.597 0.301,0.895 0.601,2.102 h 0.602 l 0.301,-2.997 0.597,2.399 0.602,-0.902 0.301,-0.602 0.601,-2.098 0.598,3.602 0.601,-4.5 0.301,2.398 0.602,-2.996 0.597,2.399 0.301,0.597 0.602,2.7 0.601,-3.297 0.598,-2.7 0.301,3.895 0.601,-0.598 h 0.602 l 0.301,-4.195 0.597,0.301 0.602,3.894 0.301,-0.898 0.601,2.699 0.598,0.301 0.601,-2.102 0.301,-0.898 h 0.602 l 0.597,0.898 0.301,-0.898 0.602,0.898 0.601,-2.398 0.301,-1.496 h 0.598 l 0.601,3.894 0.602,-4.496 0.301,2.098 0.597,1.5 0.602,0.601 0.301,-3.296 0.601,1.195 0.598,1.5 0.601,-1.5 0.301,-1.496 0.602,0.301 0.597,1.195 0.301,-0.598 0.602,-0.898 h 0.601 l 0.301,-3 0.598,2.097 0.601,2.7 0.602,-2.7 0.301,-5.113 h 0.597 l 0.602,0.898 0.301,1.219 0.601,4.2 h 0.598 l 0.601,-3.899 0.301,-0.301 0.602,3.297 0.601,-3.898 0.297,1.199 0.602,4.496 0.601,-4.195 0.301,-0.598 0.598,-0.602 0.601,2.997 0.602,3.3 0.301,-6.297 0.597,-2.414 0.602,2.715 0.301,-0.601 0.601,-3.915 0.602,-4.195 0.597,-2.996 0.301,3.594 0.602,4.797 0.601,0.601 0.297,-0.902 0.602,-1.5 0.601,-3.895 0.301,3.297 0.602,-11.711 0.597,-4.496 0.602,9.293 0.301,-7.192 0.601,-3.898 0.598,5.695 0.301,4.797 0.601,6.012 0.602,-2.695 0.597,4.793 0.301,-5.996 0.602,3 0.601,-10.809 0.301,-2.7 0.598,-3.918 0.601,7.516 0.301,7.813 0.602,-0.602 0.597,-10.211 0.602,4.199 0.301,1.497 0.601,-5.395 0.598,8.414 0.301,8.094 0.601,-6.898 0.602,-21.919 0.301,2.098 0.597,-0.899 0.602,-19.524 0.601,-1.199 0.301,1.5 0.598,-6.895 0.601,-12.008 0.301,2.098 0.602,1.199 0.597,2.695 0.602,7.516 0.301,-12.012 0.601,8.715 0.598,1.195 0.301,-0.597 0.601,-2.414 0.602,-20.107 0.301,-14.727 0.597,21.025 0.602,7.812 0.601,-11.113 0.301,-15.009 0.598,-8.109 0.601,-13.509 0.301,-4.515 0.602,-29.716 0.597,-2.399 0.602,5.098 0.301,7.813 0.601,18.602 0.598,4.817 0.301,-54.654 0.601,-18.607 0.602,46.842 0.301,7.793 0.597,-28.813 0.602,2.695 0.601,15.309 0.301,17.122 0.598,-23.118 0.601,-29.138 0.301,-15.305 0.602,16.227 0.597,28.517 0.602,8.113 0.301,-35.731 0.601,7.195 0.602,48.338 0.297,4.515 0.601,-4.215 0.602,-12.609 0.301,0.597 0.597,2.098 0.602,-58.83 0.602,-21.919 0.3,6.293 0.602,11.712 0.598,-13.208 0.3,-42.028 0.602,-13.227 0.601,71.459 0.297,29.438 0.602,-1.504 0.601,-10.809 0.602,15.907 0.297,-3.594 0.601,13.806 0.602,21.922 0.301,-0.301 0.601,-21.918 0.598,4.195 0.602,10.211 0.3,13.809 0.602,13.227 0.598,8.993 0.3,-8.692 0.602,6.293 0.601,-0.898 0.297,16.508 0.602,3.614 0.601,22.223 0.602,4.496 0.301,1.2 0.597,0.898 0.602,-12.61 0.301,6.313 0.601,5.699 0.598,-3.301 0.602,6.594 0.3,0.903 0.602,19.223 0.598,-6.316 0.3,-2.7 0.602,-9.609 0.601,18.024 0.301,-12.309 0.598,-5.715 0.601,-15.606 h 0.602 l 0.301,9.012 0.597,14.707 0.602,-10.512 0.301,-0.898 0.601,14.109 0.598,-4.199 0.602,-12.61 0.3,-7.813 0.602,0.602 0.598,8.414 0.3,-11.113 0.602,-2.996 0.602,4.195 0.3,6.317 0.598,-0.903 0.602,0.301 0.601,5.395 0.301,-1.196 0.598,2.696 0.601,-0.598 0.301,-6.598 0.601,3 0.598,-10.211 0.301,8.114 0.601,13.508 0.602,-2.699 0.598,-4.215 0.3,24.918 0.602,0.297 0.602,-11.109 0.3,-8.095 0.598,4.501 0.602,7.812 0.601,-3.297 0.301,0.895 h 0.598 l 0.601,5.996 0.301,3.899 0.601,-22.802 0.602,6.297 0.297,5.114 0.601,12.309 0.602,1.199 0.602,-11.11 0.296,-3.015 0.602,13.227 0.602,1.797 0.3,1.199 0.598,-5.715 0.602,7.516 h 0.601 l 0.301,4.195 0.601,-5.695" />
    </g>
    <g
       transform="matrix(0.35277777,0,0,0.35276613,148.06881,-24.851755)"
       id="g4729">
      <path
         inkscape:connector-curvature="0"
         id="path4731"
         style="fill:none;stroke:#0000ff;stroke-width:1.50125504;stroke-linecap:round;stroke-linejoin:round;stroke-miterlimit:10;stroke-dasharray:none;stroke-opacity:1"
         d="m 447.48,676.386 0.598,5.695 0.301,-1.199 0.601,-13.212 0.602,3.301 0.297,6.016 0.601,2.395 0.602,-3.297 0.602,2.098 0.296,3.597 0.602,1.801 0.602,-4.797 h 0.3 l 0.602,1.801 0.598,2.098 0.601,5.414 0.301,-1.801 0.602,-8.41 0.597,-2.7 0.301,10.212 0.602,-7.512 0.601,1.199 0.297,-2.098 0.602,11.407 0.601,-1.196 0.602,-2.097 0.3,2.996 0.598,4.496 0.602,-3 0.3,4.5 0.602,-2.402 0.598,-0.297 0.601,-2.102 0.301,5.098 0.602,0.598 0.597,-3.895 0.301,3.895 0.602,-0.297 0.601,0.598 0.301,1.519 0.598,-2.418 0.601,2.117 0.602,0.602 0.3,0.898 0.598,-0.601 h 0.602 l 0.3,-2.117 0.602,3.32 0.598,-2.719 0.3,4.516 0.602,-0.602 0.602,-0.597 0.597,-1.2 0.301,-1.199 0.602,6.293 0.601,-7.512 0.301,0.618 0.598,0.902 0.601,1.5 h 0.602 l 0.3,-4.219 0.598,-2.996 0.602,0.297 0.3,-0.598 0.602,-3.297 0.598,9.012 0.3,-6.313 0.602,-2.398 0.602,5.094 0.601,-1.5 0.297,3.598 0.602,1.218 0.601,-5.414 0.301,1.5 0.598,-2.098 0.601,3.598 0.602,-0.902 h 0.301 l 0.597,-2.696 0.602,6.614 0.301,-9.012 0.601,4.496 0.602,2.696 h 0.297 l 0.601,0.918 0.602,-3.016 0.601,1.5 0.297,-2.098 0.602,4.215 0.601,0.301 0.301,-1.52 0.598,1.52 0.601,1.199 0.602,-4.516 0.301,-1.5 0.601,3.297 0.598,-0.3 0.301,-0.598 0.601,3.918 0.602,-0.301 0.297,2.996 0.601,-0.597 0.602,-2.7 0.601,3.598 0.297,-6.016 0.602,-1.496 0.601,6.614 0.301,-0.602 0.602,-0.301 0.597,0.903 0.301,-6.915 0.602,5.114 0.601,2.102 0.598,-3.301 0.301,1.5 0.601,-1.5 0.602,3.597 0.3,-1.8 0.598,0.601 0.602,0.602 0.601,1.797 0.301,-2.399 0.598,0.602 0.601,1.195 0.301,-1.195 0.602,-3.598 0.597,3.297 0.301,-0.301 0.602,3.598 h 0.601 l 0.598,-4.199 0.301,1.203 0.601,2.394 0.602,0.301 0.301,-1.199 0.597,1.5 0.602,-0.899 0.601,2.098 0.301,-3 0.598,1.199 0.601,1.801 0.301,-2.098 0.602,2.997 0.597,-5.395 0.301,2.398 0.602,0.297 0.601,2.7 0.598,-2.7 0.301,1.5 0.601,-3.894 0.602,1.195 0.301,0.301 0.597,1.5 0.602,0.898 0.601,-2.996 0.301,-0.597 0.598,2.695 0.601,-0.301 0.301,-1.797 0.602,4.196 0.597,-2.7 0.301,1.5 0.602,-2.097 0.601,-2.399 0.602,0.602 0.297,5.996 0.601,-3 0.602,-0.301 0.301,2.399 h 0.597 l 0.602,-2.7 0.301,-0.297 0.601,-2.097 0.598,2.394 0.601,0.903 0.301,0.597 0.602,-1.199 0.601,-4.195 0.297,3.297 0.602,-0.899 0.601,0.598 0.602,1.5 0.297,-1.199 0.601,1.199 0.602,-0.301 0.301,-2.695 0.597,2.695 0.602,-1.199 0.301,-2.399 0.601,1.5 0.602,-0.597 h 0.597 l 0.301,0.597 0.602,-2.996 0.601,3.594 0.297,1.5 0.602,-1.199 h 0.601 l 0.602,-3.594 0.301,0.297 0.597,2.102 0.602,1.195 0.301,-0.301 0.601,0.602 0.598,-2.399 h 0.301 l 0.601,-0.601 0.602,3.597 0.597,-1.797 0.301,0.301 0.602,-0.301 0.601,-1.199 0.301,1.199 0.598,-0.296 0.601,2.996 0.602,-0.602 0.301,-3.898 0.597,3.3 0.602,-0.601 0.301,-3.594 0.601,2.399 0.598,-4.801 0.301,5.097 0.601,-1.5 0.602,2.098 0.597,-0.894 0.301,0.597 0.602,2.098 0.601,-3.598 0.301,1.5 0.598,2.699 0.601,0.297 0.602,-2.996 0.301,0.598 0.597,0.898 0.602,-0.597 0.301,0.3 0.601,2.997 0.598,-1.2 0.301,-0.297 0.601,-1.5 0.602,2.098 0.597,-5.996 0.301,4.195 0.602,-0.898 0.601,1.5 0.301,0.898 0.598,2.102 0.601,-2.699 0.301,-0.602 0.602,-0.898 0.597,0.898 0.602,0.602 0.301,-1.5 0.601,0.898 0.598,2.399 0.301,-1.2 0.601,-1.5 0.602,3 0.601,-4.199 0.297,-0.297 0.602,0.297 0.601,2.102 0.301,1.496 0.598,0.301 0.601,-1.797 0.301,1.797 0.602,-1.497 0.597,-1.203 0.602,1.5 0.301,-0.898 0.601,1.199 0.602,-1.801 0.297,1.801 0.601,-0.898 0.602,-0.301 0.601,0.301 0.297,1.496 0.602,0.601 0.601,-0.3 0.301,-0.602 0.598,1.203 0.601,-3 0.301,0.301 0.602,0.898 0.601,2.102 0.598,-1.504 0.301,-1.496 0.601,-1.5 0.602,2.996 h 0.898 l 0.602,-1.496 0.601,3.898 0.301,-3.898 0.598,3 0.601,-3.301 0.301,-0.301 0.602,3.602 0.597,-3.602 0.301,-2.394 0.602,3.894 0.601,-1.5 0.598,2.399 0.301,-1.797 0.601,0.301 0.602,-0.602 0.301,0.902 0.597,2.399 0.602,-2.699 0.301,2.699 0.601,-2.102 0.598,0.598 0.602,0.902 0.3,-3 0.602,0.903 0.598,0.597 0.3,-2.097 0.602,1.8 0.601,0.895 0.598,1.504 0.301,-0.902 0.601,0.902 0.602,-0.602 0.301,-2.699 0.597,1.797 h 0.602 l 0.301,-1.797 0.601,0.301 0.598,-0.602 0.602,1.5 0.3,1.801 0.602,-2.699 0.598,1.496 0.3,-1.195 0.602,-0.602 0.601,0.602 0.598,-0.301 0.301,-0.602 0.601,-3.297 0.602,2.7 0.301,4.496 0.597,-3.899 0.602,3 0.301,-2.398 0.601,-0.301 0.598,2.399 0.602,-1.2 0.3,0.301 0.602,-1.801 0.598,2.098 0.3,1.504 0.602,-2.102 0.601,-1.199 0.602,1.797 0.297,1.203 0.601,-1.203 0.602,-3.895 0.301,2.399 0.597,3 0.602,-4.199 0.301,2.097 0.601,1.2 0.598,-1.497 0.602,-2.402 0.3,0.902 0.602,-2.097 0.602,2.996 0.296,1.496 0.602,-2.098 h 0.602 l 0.3,-1.199 0.598,1.801 0.602,0.898 0.601,-0.297 0.301,2.098 0.601,-2.098 0.598,0.598 0.301,-3.297 0.601,2.996 0.602,0.301 0.598,1.199 0.3,-4.199 0.602,0.301 h 0.602 l 0.296,2.996 1.204,0.602 0.3,-0.602 0.602,0.902 0.598,-0.902 0.601,-1.496 0.301,1.496 0.601,-0.297 0.598,-2.098 0.301,2.395 0.601,-0.895 0.602,1.497 0.598,-0.602 0.3,0.301 0.602,-0.301 0.602,0.301 0.3,0.601 0.598,-1.5 0.602,0.598 0.3,1.504 0.602,-2.102 0.598,-1.5 0.601,-0.297 0.301,2.098 0.601,3.317 0.598,-4.516 0.301,2.699 0.601,-1.5 0.602,-0.598 0.598,2.399 0.3,-3.301 0.602,2.399 0.602,-1.797 0.3,0.597 0.598,0.301 0.602,-1.199 0.3,1.199 0.602,2.098 0.598,-4.496 0.601,2.695 h 0.301 l 0.602,2.102 0.597,-2.102 h 0.301 l 0.602,0.902 h 0.601 l 0.598,-0.3 0.301,0.601 0.601,-0.601 0.602,0.902 0.3,0.598 0.598,-0.301 0.602,-0.297 0.3,-2.102 0.602,2.7 0.598,-2.7 0.601,1.2 0.301,1.5 0.602,0.597 0.597,-4.797 0.301,4.2 0.602,-1.801 0.601,-2.098 0.301,4.496 0.598,-4.195 0.601,1.496 0.602,0.902 0.3,-1.797 0.598,2.997 0.602,-0.899 0.3,-0.601 0.602,1.5 0.602,0.3 0.597,-0.898 h 0.301 l 0.602,0.598 0.601,-1.2 0.297,-0.3 0.602,1.8 0.601,-3 0.301,2.102 0.598,-2.399 h 0.601 l 0.602,2.997 0.3,-2.399 0.602,1.801 0.598,-0.902 0.3,1.5 0.602,-1.5 0.602,1.5 0.597,1.218 0.301,-3.617 0.602,0.899 0.601,3.019 0.297,-3.32 1.203,1.203 h 0.903 l 0.597,1.516 0.602,0.3 0.301,-1.218 0.601,-0.301 0.598,0.898 h 0.301 l 0.601,-4.496 0.602,3.301 h 0.597 l 0.903,-0.902 0.601,2.418 h 0.301 l 0.598,-1.516 0.601,-1.801 0.301,1.199 0.602,0.602 0.597,-2.102" />
    </g>
    <path
       d="m 300.52036,101.36733 h 92.99358 v 20.15801 h -92.99358 z"
       style="fill:#ffffff;fill-opacity:1;fill-rule:evenodd;stroke:#000000;stroke-width:0.30516556;stroke-linecap:round;stroke-linejoin:round;stroke-miterlimit:10;stroke-dasharray:none;stroke-opacity:1"
       id="path4737"
       inkscape:connector-curvature="0" />
    <path
       d="m 302.22176,107.62603 h 19.91395"
       style="fill:none;stroke:#ff0000;stroke-width:0.52960068;stroke-linecap:round;stroke-linejoin:round;stroke-miterlimit:10;stroke-dasharray:none;stroke-opacity:1"
       id="path4741"
       inkscape:connector-curvature="0" />
    <text
       id="text4745"
       style="font-variant:normal;font-weight:normal;font-size:7.24670506px;font-family:TeXGyrePagella;-inkscape-font-specification:TeXGyrePagella-Regular;writing-mode:lr-tb;fill:#000000;fill-opacity:1;fill-rule:nonzero;stroke:none;stroke-width:0.35493368"
       transform="scale(1.0061443,0.99389324)"
       x="323.74649"
       y="111.26826">
      <tspan
         id="tspan4743"
         sodipodi:role="line"
         x="346.92145 349.28387"
         style="stroke-width:0.35493368" />
    </text>
    <path
       d="m 302.22176,116.62572 h 19.91395"
       style="fill:none;stroke:#0000ff;stroke-width:0.52960068;stroke-linecap:round;stroke-linejoin:round;stroke-miterlimit:10;stroke-dasharray:none;stroke-opacity:1"
       id="path4749"
       inkscape:connector-curvature="0" />
    <text
       id="text4773"
       style="font-variant:normal;font-weight:normal;font-size:8.46666718px;font-family:TeXGyrePagella;-inkscape-font-specification:TeXGyrePagella-Regular;writing-mode:lr-tb;fill:#ff0000;fill-opacity:1;fill-rule:nonzero;stroke:none;stroke-width:0.35277778"
       x="221.19963"
       y="105.34555">
      <tspan
         id="tspan4771"
         sodipodi:role="line"
         y="105.34555"
         x="221.19963 225.43297"
         style="stroke-width:0.35277778">60</tspan>
    </text>
    <text
       id="text4777"
       style="font-style:italic;font-variant:normal;font-size:8.46666718px;font-family:TeXGyrePagella;-inkscape-font-specification:TeXGyrePagella-Italic;writing-mode:lr-tb;fill:#ff0000;fill-opacity:1;fill-rule:nonzero;stroke:none;stroke-width:0.35277778"
       x="229.66631"
       y="105.34555">
      <tspan
         id="tspan4775"
         y="105.34555"
         x="229.66631"
         style="stroke-width:0.35277778">S</tspan>
    </text>
    <text
       id="text4781"
       style="font-variant:normal;font-weight:normal;font-size:5.64444447px;font-family:TeXGyrePagella;-inkscape-font-specification:TeXGyrePagella-Regular;writing-mode:lr-tb;fill:#ff0000;fill-opacity:1;fill-rule:nonzero;stroke:none;stroke-width:0.35277778"
       x="234.3792"
       y="107.03888">
      <tspan
         id="tspan4779"
         sodipodi:role="line"
         y="107.03888"
         x="234.3792 237.20142 240.62195"
         style="stroke-width:0.35277778">1/2</tspan>
    </text>
    <text
       id="text4785"
       style="font-variant:normal;font-weight:normal;font-size:8.46666718px;font-family:TeXGyrePagella;-inkscape-font-specification:TeXGyrePagella-Regular;writing-mode:lr-tb;fill:#0000ff;fill-opacity:0.78039198;fill-rule:nonzero;stroke:none;stroke-width:0.35277778"
       x="273.38757"
       y="105.34555">
      <tspan
         id="tspan4783"
         y="105.34555"
         x="273.38757"
         style="stroke-width:0.35277778">5</tspan>
    </text>
    <text
       id="text4789"
       style="font-variant:normal;font-weight:normal;font-size:8.46666718px;font-family:TeXGyrePagella;-inkscape-font-specification:TeXGyrePagella-Regular;writing-mode:lr-tb;fill:#0000ff;fill-opacity:0.78039198;fill-rule:nonzero;stroke:none;stroke-width:0.35277778"
       x="277.62091"
       y="105.34555">
      <tspan
         id="tspan4787"
         y="105.34555"
         x="277.62091"
         style="stroke-width:0.35277778">7</tspan>
    </text>
    <text
       id="text4793"
       style="font-style:italic;font-variant:normal;font-size:8.46666718px;font-family:TeXGyrePagella;-inkscape-font-specification:TeXGyrePagella-Italic;writing-mode:lr-tb;fill:#0000ff;fill-opacity:0.78039198;fill-rule:nonzero;stroke:none;stroke-width:0.35277778"
       x="281.85425"
       y="105.34555">
      <tspan
         id="tspan4791"
         y="105.34555"
         x="281.85425"
         style="stroke-width:0.35277778">S</tspan>
    </text>
    <text
       id="text4797"
       style="font-variant:normal;font-weight:normal;font-size:5.64444494px;font-family:TeXGyrePagella;-inkscape-font-specification:TeXGyrePagella-Regular;writing-mode:lr-tb;fill:#0000ff;fill-opacity:0.78039198;fill-rule:nonzero;stroke:none;stroke-width:0.35277775"
       x="286.56714"
       y="107.03888">
      <tspan
         id="tspan4795"
         y="107.03888"
         x="286.56714"
         style="stroke-width:0.35277775">1</tspan>
    </text>
    <text
       id="text4801"
       style="font-variant:normal;font-weight:normal;font-size:5.64444494px;font-family:TeXGyrePagella;-inkscape-font-specification:TeXGyrePagella-Regular;writing-mode:lr-tb;fill:#0000ff;fill-opacity:0.78039198;fill-rule:nonzero;stroke:none;stroke-width:0.35277775"
       x="289.38934"
       y="107.03888">
      <tspan
         id="tspan4799"
         y="107.03888"
         x="289.38934"
         style="stroke-width:0.35277775">/</tspan>
    </text>
    <text
       id="text4805"
       style="font-variant:normal;font-weight:normal;font-size:5.64444494px;font-family:TeXGyrePagella;-inkscape-font-specification:TeXGyrePagella-Regular;writing-mode:lr-tb;fill:#0000ff;fill-opacity:0.78039198;fill-rule:nonzero;stroke:none;stroke-width:0.35277775"
       x="292.80688"
       y="107.03888">
      <tspan
         id="tspan4803"
         y="107.03888"
         x="292.80688"
         style="stroke-width:0.35277775">2</tspan>
    </text>
    <text
       id="text4809"
       style="font-variant:normal;font-weight:normal;font-size:5.58423138px;font-family:TeXGyrePagella;-inkscape-font-specification:TeXGyrePagella-Regular;writing-mode:lr-tb;fill:#ff0000;fill-opacity:1;fill-rule:nonzero;stroke:none;stroke-width:0.35277778"
       x="240.52515"
       y="13.71823">
      <tspan
         id="tspan4807"
         sodipodi:role="line"
         y="13.71823"
         x="240.52515 243.31726"
         style="stroke-width:0.35277778">60</tspan>
    </text>
    <text
       id="text4813"
       style="font-style:italic;font-variant:normal;font-size:5.58423138px;font-family:TeXGyrePagella;-inkscape-font-specification:TeXGyrePagella-Italic;writing-mode:lr-tb;fill:#ff0000;fill-opacity:1;fill-rule:nonzero;stroke:none;stroke-width:0.35277778"
       x="246.10938"
       y="13.71823">
      <tspan
         id="tspan4811"
         y="13.71823"
         x="246.10938"
         style="stroke-width:0.35277778">S</tspan>
    </text>
    <text
       id="text4817"
       style="font-variant:normal;font-weight:normal;font-size:3.72282052px;font-family:TeXGyrePagella;-inkscape-font-specification:TeXGyrePagella-Regular;writing-mode:lr-tb;fill:#ff0000;fill-opacity:1;fill-rule:nonzero;stroke:none;stroke-width:0.35277778"
       x="249.21777"
       y="14.835086">
      <tspan
         id="tspan4815"
         sodipodi:role="line"
         y="14.835086"
         x="249.21777 251.07919 253.33522"
         style="stroke-width:0.35277778">1/2</tspan>
    </text>
    <text
       id="text4821"
       style="font-style:italic;font-variant:normal;font-size:5.58423138px;font-family:TeXGyrePagella;-inkscape-font-specification:TeXGyrePagella-Italic;writing-mode:lr-tb;fill:#0000ff;fill-opacity:0.870588;fill-rule:nonzero;stroke:none;stroke-width:0.35277778"
       x="261.75677"
       y="21.700924">
      <tspan
         id="tspan4819"
         y="21.700924"
         x="261.75677"
         style="stroke-width:0.35277778">5</tspan>
    </text>
    <text
       id="text4825"
       style="font-style:italic;font-variant:normal;font-size:5.58423138px;font-family:TeXGyrePagella;-inkscape-font-specification:TeXGyrePagella-Italic;writing-mode:lr-tb;fill:#0000ff;fill-opacity:0.870588;fill-rule:nonzero;stroke:none;stroke-width:0.35277778"
       x="264.54889"
       y="21.700924">
      <tspan
         id="tspan4823"
         y="21.700924"
         x="264.54889"
         style="stroke-width:0.35277778">7</tspan>
    </text>
    <text
       id="text4829"
       style="font-style:italic;font-variant:normal;font-size:5.58423138px;font-family:TeXGyrePagella;-inkscape-font-specification:TeXGyrePagella-Italic;writing-mode:lr-tb;fill:#0000ff;fill-opacity:0.870588;fill-rule:nonzero;stroke:none;stroke-width:0.35277778"
       x="267.341"
       y="21.700924">
      <tspan
         id="tspan4827"
         y="21.700924"
         x="267.341"
         style="stroke-width:0.35277778">S</tspan>
    </text>
    <text
       id="text4833"
       style="font-variant:normal;font-weight:normal;font-size:3.72282052px;font-family:TeXGyrePagella;-inkscape-font-specification:TeXGyrePagella-Regular;writing-mode:lr-tb;fill:#0000ff;fill-opacity:0.870588;fill-rule:nonzero;stroke:none;stroke-width:0.35277778"
       x="270.4494"
       y="22.817759">
      <tspan
         id="tspan4831"
         y="22.817759"
         x="270.4494"
         style="stroke-width:0.35277778">1</tspan>
    </text>
    <text
       id="text4837"
       style="font-variant:normal;font-weight:normal;font-size:3.72282052px;font-family:TeXGyrePagella;-inkscape-font-specification:TeXGyrePagella-Regular;writing-mode:lr-tb;fill:#0000ff;fill-opacity:0.870588;fill-rule:nonzero;stroke:none;stroke-width:0.35277778"
       x="272.31082"
       y="22.817759">
      <tspan
         id="tspan4835"
         y="22.817759"
         x="272.31082"
         style="stroke-width:0.35277778">/</tspan>
    </text>
    <text
       id="text4841"
       style="font-variant:normal;font-weight:normal;font-size:3.72282052px;font-family:TeXGyrePagella;-inkscape-font-specification:TeXGyrePagella-Regular;writing-mode:lr-tb;fill:#0000ff;fill-opacity:0.870588;fill-rule:nonzero;stroke:none;stroke-width:0.35277778"
       x="274.56488"
       y="22.817759">
      <tspan
         id="tspan4839"
         y="22.817759"
         x="274.56488"
         style="stroke-width:0.35277778">2</tspan>
    </text>
    <text
       id="text4845"
       style="font-variant:normal;font-weight:normal;font-size:8.81944466px;font-family:TeXGyrePagella;-inkscape-font-specification:TeXGyrePagella-Regular;writing-mode:lr-tb;fill:#000000;fill-opacity:1;fill-rule:nonzero;stroke:none;stroke-width:0.35277778"
       x="148.2011"
       y="94.502251">
      <tspan
         id="tspan4843"
         sodipodi:role="line"
         y="94.502251"
         x="148.2011 153.79263"
         style="stroke-width:0.35277778">b)</tspan>
    </text>
    <path
       inkscape:connector-curvature="0"
       id="path4847"
       style="fill:none;stroke:#008000;stroke-width:0.84666699;stroke-linecap:round;stroke-linejoin:round;stroke-miterlimit:10;stroke-dasharray:none;stroke-opacity:1"
       d="m 401.06409,-7.533787 h -19.19746 l -0.69038,64.709674 H 344.77276 L 212.18053,5.6043627 V -7.2995425 c -0.0356,-0.1739195 -0.14323,-0.2384778 -0.2974,-0.2342445 H 196.6255" />
    <path
       inkscape:connector-curvature="0"
       id="path4849"
       style="fill:none;stroke:#000000;stroke-width:0.56444478;stroke-linecap:butt;stroke-linejoin:miter;stroke-miterlimit:4;stroke-dasharray:none;stroke-opacity:1"
       d="M 212.74426,-14.22704 H 344.20761" />
    <path
       inkscape:connector-curvature="0"
       id="path4851"
       style="fill:#000000;fill-opacity:1;fill-rule:evenodd;stroke:#000000;stroke-width:0.28222221;stroke-linecap:butt;stroke-linejoin:miter;stroke-miterlimit:4;stroke-dasharray:none;stroke-opacity:1"
       d="m 215.00416,-14.22704 1.12995,1.127125 -3.95605,-1.127125 3.95605,-1.128536 z" />
    <path
       inkscape:connector-curvature="0"
       id="path4853"
       style="fill:#000000;fill-opacity:1;fill-rule:evenodd;stroke:#000000;stroke-width:0.28222221;stroke-linecap:butt;stroke-linejoin:miter;stroke-miterlimit:4;stroke-dasharray:none;stroke-opacity:1"
       d="m 341.94912,-14.22704 -1.12994,-1.128536 3.95358,1.128536 -3.95358,1.127125 z" />
    <path
       inkscape:connector-curvature="0"
       id="path4855"
       style="fill:none;stroke:#000000;stroke-width:0.56444478;stroke-linecap:butt;stroke-linejoin:miter;stroke-miterlimit:4;stroke-dasharray:none;stroke-opacity:1"
       d="M 199.28897,-6.9704009 V 5.0406239" />
    <path
       inkscape:connector-curvature="0"
       id="path4857"
       style="fill:#000000;fill-opacity:1;fill-rule:evenodd;stroke:#000000;stroke-width:0.28222221;stroke-linecap:butt;stroke-linejoin:miter;stroke-miterlimit:4;stroke-dasharray:none;stroke-opacity:1"
       d="m 199.28897,-4.714387 -1.12995,1.128536 1.12995,-3.947936 1.12889,3.947936 z" />
    <path
       inkscape:connector-curvature="0"
       id="path4859"
       style="fill:#000000;fill-opacity:1;fill-rule:evenodd;stroke:#000000;stroke-width:0.28222221;stroke-linecap:butt;stroke-linejoin:miter;stroke-miterlimit:4;stroke-dasharray:none;stroke-opacity:1"
       d="m 199.28897,2.7849628 1.12889,-1.1288889 -1.12889,3.9482888 -1.12995,-3.9482888 z" />
    <path
       inkscape:connector-curvature="0"
       id="path4861"
       style="fill:none;stroke:#000000;stroke-width:0.56444478;stroke-linecap:butt;stroke-linejoin:miter;stroke-miterlimit:4;stroke-dasharray:none;stroke-opacity:1"
       d="M 199.28897,6.1691599 V 56.611089" />
    <path
       inkscape:connector-curvature="0"
       id="path4863"
       style="fill:#000000;fill-opacity:1;fill-rule:evenodd;stroke:#000000;stroke-width:0.28222221;stroke-linecap:butt;stroke-linejoin:miter;stroke-miterlimit:4;stroke-dasharray:none;stroke-opacity:1"
       d="m 199.28897,8.4251738 -1.12995,1.1285361 1.12995,-3.9479361 1.12889,3.9479361 z" />
    <path
       inkscape:connector-curvature="0"
       id="path4865"
       style="fill:#000000;fill-opacity:1;fill-rule:evenodd;stroke:#000000;stroke-width:0.28222221;stroke-linecap:butt;stroke-linejoin:miter;stroke-miterlimit:4;stroke-dasharray:none;stroke-opacity:1"
       d="m 199.28897,54.355076 1.12889,-1.128537 -1.12889,3.947936 -1.12995,-3.947936 z" />
    <path
       inkscape:connector-curvature="0"
       id="path4867"
       style="fill:none;stroke:#000000;stroke-width:0.28222221;stroke-linecap:butt;stroke-linejoin:miter;stroke-miterlimit:4;stroke-dasharray:2.25777808, 2.25777808;stroke-dashoffset:0;stroke-opacity:1"
       d="M 211.88313,-7.533787 V -19.868662" />
    <path
       inkscape:connector-curvature="0"
       id="path4869"
       style="fill:none;stroke:#000000;stroke-width:0.28222221;stroke-linecap:butt;stroke-linejoin:miter;stroke-miterlimit:4;stroke-dasharray:2.25777808, 2.25777808;stroke-dashoffset:0;stroke-opacity:1"
       d="M 344.91316,57.207637 V -19.868662" />
    <path
       inkscape:connector-curvature="0"
       id="path4871"
       style="fill:none;stroke:#000000;stroke-width:0.28222221;stroke-linecap:butt;stroke-linejoin:miter;stroke-miterlimit:4;stroke-dasharray:2.25777808, 2.25777808;stroke-dashoffset:0;stroke-opacity:1"
       d="M 212.18053,5.6043627 H 195.90865" />
    <path
       inkscape:connector-curvature="0"
       id="path4873"
       style="fill:none;stroke:#000000;stroke-width:0.28222221;stroke-linecap:butt;stroke-linejoin:miter;stroke-miterlimit:4;stroke-dasharray:2.25777808, 2.25777808;stroke-dashoffset:0;stroke-opacity:1"
       d="M 345.31286,57.03407 H 195.90865" />
    <text
       id="text4877"
       style="font-variant:normal;font-weight:normal;font-size:8.81944466px;font-family:TeXGyrePagella;-inkscape-font-specification:TeXGyrePagella-Regular;writing-mode:lr-tb;fill:#000000;fill-opacity:1;fill-rule:nonzero;stroke:none;stroke-width:0.35277778"
       x="265.95856"
       y="-17.700871">
      <tspan
         id="tspan4875"
         sodipodi:role="line"
         y="-17.700871"
         x="265.95856 270.36829 274.77802 279.18774"
         style="stroke-width:0.35277778">200</tspan>
    </text>
    <text
       id="text4881"
       style="font-variant:normal;font-weight:normal;font-size:8.81944466px;font-family:TeXGyrePagella;-inkscape-font-specification:TeXGyrePagella-Regular;writing-mode:lr-tb;fill:#000000;fill-opacity:1;fill-rule:nonzero;stroke:none;stroke-width:0.35277778"
       x="281.39261"
       y="-17.700871">
      <tspan
         id="tspan4879"
         y="-17.700871"
         x="281.39261"
         style="stroke-width:0.35277778">μ</tspan>
    </text>
    <text
       id="text4889"
       style="font-variant:normal;font-weight:normal;font-size:8.81944466px;font-family:TeXGyrePagella;-inkscape-font-specification:TeXGyrePagella-Regular;writing-mode:lr-tb;fill:#000000;fill-opacity:1;fill-rule:nonzero;stroke:none;stroke-width:0.35277778"
       x="287.39865"
       y="-17.700871">
      <tspan
         id="tspan4883"
         y="-17.700871"
         x="287.39865"
         style="stroke-width:0.35277778">s</tspan>
      <tspan
         id="tspan4885"
         sodipodi:role="line"
         y="3.1532431"
         x="171.0145 176.35909 180.7688 185.17853 187.38339"
         style="stroke-width:0.35277778">~30 V</tspan>
      <tspan
         id="tspan4887"
         sodipodi:role="line"
         y="33.633461"
         x="172.70784 177.11757 181.52728 185.93701 188.14186"
         style="stroke-width:0.35277778">150 V</tspan>
    </text>
    <path
       inkscape:connector-curvature="0"
       id="path4891"
       style="fill:#0000ff;fill-opacity:0.30588199;fill-rule:nonzero;stroke:none;stroke-width:0.35277778"
       d="m 272.86395,26.189298 c 0,1.961092 -4.05413,3.551414 -9.05369,3.551414 -4.99957,0 -9.05228,-1.590322 -9.05228,-3.551414 0,-1.960738 4.05271,-3.54965 9.05228,-3.54965 4.99956,0 9.05369,1.588912 9.05369,3.54965 z" />
    <path
       inkscape:connector-curvature="0"
       id="path4893"
       style="fill:none;stroke:#0000ff;stroke-width:0.35277778;stroke-linecap:butt;stroke-linejoin:miter;stroke-miterlimit:4;stroke-dasharray:none;stroke-opacity:1"
       d="m 272.86395,26.189298 c 0,1.961092 -4.05413,3.551414 -9.05369,3.551414 -4.99957,0 -9.05228,-1.590322 -9.05228,-3.551414 0,-1.960738 4.05271,-3.54965 9.05228,-3.54965 4.99956,0 9.05369,1.588912 9.05369,3.54965 z" />
    <path
       inkscape:connector-curvature="0"
       id="path4895"
       style="fill:#ff0000;fill-opacity:0.30588199;fill-rule:nonzero;stroke:none;stroke-width:0.35277778"
       d="m 253.14296,18.827885 c 0,1.961091 -4.05165,3.550002 -9.05369,3.550002 -4.99815,0 -9.05121,-1.588911 -9.05121,-3.550002 0,-1.961092 4.05306,-3.54965 9.05121,-3.54965 5.00204,0 9.05369,1.588558 9.05369,3.54965 z" />
    <path
       inkscape:connector-curvature="0"
       id="path4897"
       style="fill:none;stroke:#ff0000;stroke-width:0.35277778;stroke-linecap:butt;stroke-linejoin:miter;stroke-miterlimit:4;stroke-dasharray:none;stroke-opacity:1"
       d="m 253.14296,18.827885 c 0,1.961091 -4.05165,3.550002 -9.05369,3.550002 -4.99815,0 -9.05121,-1.588911 -9.05121,-3.550002 0,-1.961092 4.05306,-3.54965 9.05121,-3.54965 5.00204,0 9.05369,1.588558 9.05369,3.54965 z" />
    <text
       id="text4901"
       style="font-variant:normal;font-weight:normal;font-size:8.81944466px;font-family:TeXGyrePagella;-inkscape-font-specification:TeXGyrePagella-Regular;writing-mode:lr-tb;fill:#000000;fill-opacity:1;fill-rule:nonzero;stroke:none;stroke-width:0.35277778"
       x="148.2011"
       y="-18.448845">
      <tspan
         id="tspan4899"
         sodipodi:role="line"
         y="-18.448845"
         x="148.2011 152.61082"
         style="stroke-width:0.35277778">a)</tspan>
    </text>
    <path
       inkscape:connector-curvature="0"
       id="path4903"
       style="fill:none;stroke:#000000;stroke-width:0.56444442;stroke-linecap:butt;stroke-linejoin:miter;stroke-miterlimit:4;stroke-dasharray:none;stroke-opacity:1"
       d="M 172.9781,69.064145 H 401.14982" />
    <path
       d="m 398.89098,69.064384 -1.12853,-1.128536 3.95075,1.128536 -3.95075,1.128536 z"
       style="fill:#000000;fill-opacity:1;fill-rule:evenodd;stroke:#000000;stroke-width:0.28222221;stroke-linecap:butt;stroke-linejoin:miter;stroke-miterlimit:4;stroke-dasharray:none;stroke-opacity:1"
       id="path4907"
       inkscape:connector-curvature="0" />
    <text
       id="text4911"
       style="font-style:italic;font-variant:normal;font-size:9.8777771px;font-family:TeXGyrePagella;-inkscape-font-specification:TeXGyrePagella-Italic;writing-mode:lr-tb;fill:#000000;fill-opacity:1;fill-rule:nonzero;stroke:none;stroke-width:0.35277778"
       x="393.00467"
       y="66.194328">
      <tspan
         id="tspan4909"
         y="66.194328"
         x="393.00467"
         style="stroke-width:0.35277778">t</tspan>
    </text>
    <path
       inkscape:connector-curvature="0"
       id="path4913"
       style="fill:none;stroke:#000000;stroke-width:0.56444478;stroke-linecap:butt;stroke-linejoin:miter;stroke-miterlimit:4;stroke-dasharray:none;stroke-opacity:1"
       d="M 158.1258,-16.190953 V 68.909981" />
    <path
       d="m 158.1258,-13.932231 -1.12854,1.128536 1.12854,-3.950758 1.12853,3.950758 z"
       style="fill:#000000;fill-opacity:1;fill-rule:evenodd;stroke:#000000;stroke-width:0.28222221;stroke-linecap:butt;stroke-linejoin:miter;stroke-miterlimit:4;stroke-dasharray:none;stroke-opacity:1"
       id="path4917"
       inkscape:connector-curvature="0" />
    <path
       d="M 159.40038,-6.6230281 H 156.8498"
       style="fill:none;stroke:#000000;stroke-width:0.28222221;stroke-linecap:butt;stroke-linejoin:miter;stroke-miterlimit:4;stroke-dasharray:none;stroke-opacity:1"
       id="path4921"
       inkscape:connector-curvature="0" />
    <text
       id="text4925"
       style="font-style:italic;font-variant:normal;font-size:9.8777771px;font-family:TeXGyrePagella;-inkscape-font-specification:TeXGyrePagella-Italic;writing-mode:lr-tb;fill:#000000;fill-opacity:1;fill-rule:nonzero;stroke:none;stroke-width:0.35277778"
       x="160.25072"
       y="-14.726181">
      <tspan
         id="tspan4923"
         y="-14.726181"
         x="160.25072"
         style="stroke-width:0.35277778">V</tspan>
    </text>
    <text
       id="text4929"
       style="font-variant:normal;font-weight:normal;font-size:7.05555534px;font-family:TeXGyrePagella;-inkscape-font-specification:TeXGyrePagella-Regular;writing-mode:lr-tb;fill:#000000;fill-opacity:1;fill-rule:nonzero;stroke:none;stroke-width:0.35277778"
       x="167.38895"
       y="-12.750626">
      <tspan
         id="tspan4927"
         sodipodi:role="line"
         y="-12.750626"
         x="167.38895 169.44212 173.29445"
         style="stroke-width:0.35277778">ion</tspan>
    </text>
    <text
       id="text4933"
       style="font-variant:normal;font-weight:normal;font-size:8.81944466px;font-family:TeXGyrePagella;-inkscape-font-specification:TeXGyrePagella-Regular;writing-mode:lr-tb;fill:#000000;fill-opacity:1;fill-rule:nonzero;stroke:none;stroke-width:0.35277778"
       x="150.56647"
       y="-4.0537262">
      <tspan
         id="tspan4931"
         y="-4.0537262"
         x="150.56647"
         style="stroke-width:0.35277778">0</tspan>
    </text>
    <text
       xml:space="preserve"
       style="font-style:normal;font-variant:normal;font-weight:normal;font-stretch:normal;font-size:9.87777805px;line-height:125%;font-family:'Times New Roman';-inkscape-font-specification:'Times New Roman, Normal';font-variant-ligatures:normal;font-variant-caps:normal;font-variant-numeric:normal;font-feature-settings:normal;text-align:start;letter-spacing:0px;word-spacing:0px;writing-mode:lr-tb;text-anchor:start;fill:#000000;fill-opacity:1;stroke:none;stroke-width:0.26458332px;stroke-linecap:butt;stroke-linejoin:miter;stroke-opacity:1"
       x="242.30896"
       y="253.36058"
       id="text5746"><tspan
         sodipodi:role="line"
         id="tspan5744"
         x="242.30896"
         y="253.36058"
         style="font-size:9.87777805px;stroke-width:0.26458332px">Temps d'arrivée</tspan></text>
    <text
       xml:space="preserve"
       style="font-style:normal;font-variant:normal;font-weight:normal;font-stretch:normal;font-size:6.3499999px;line-height:125%;font-family:'Times New Roman';-inkscape-font-specification:'Times New Roman, Normal';font-variant-ligatures:normal;font-variant-caps:normal;font-variant-numeric:normal;font-feature-settings:normal;text-align:start;letter-spacing:0px;word-spacing:0px;writing-mode:lr-tb;text-anchor:start;fill:#000000;fill-opacity:1;stroke:none;stroke-width:0.26458332px;stroke-linecap:butt;stroke-linejoin:miter;stroke-opacity:1"
       x="323.57205"
       y="108.53317"
       id="text5758"><tspan
         sodipodi:role="line"
         id="tspan5756"
         x="323.57205"
         y="108.53317"
         style="font-size:6.3499999px;stroke-width:0.26458332px">sans impulsion microonde</tspan></text>
    <text
       id="text5762"
       y="117.68021"
       x="323.57205"
       style="font-style:normal;font-variant:normal;font-weight:normal;font-stretch:normal;font-size:6.3499999px;line-height:125%;font-family:'Times New Roman';-inkscape-font-specification:'Times New Roman, Normal';font-variant-ligatures:normal;font-variant-caps:normal;font-variant-numeric:normal;font-feature-settings:normal;text-align:start;letter-spacing:0px;word-spacing:0px;writing-mode:lr-tb;text-anchor:start;fill:#000000;fill-opacity:1;stroke:none;stroke-width:0.26458332px;stroke-linecap:butt;stroke-linejoin:miter;stroke-opacity:1"
       xml:space="preserve"><tspan
         style="font-size:6.3499999px;stroke-width:0.26458332px"
         y="117.68021"
         x="323.57205"
         id="tspan5760"
         sodipodi:role="line">avec impulsion microonde</tspan></text>
  </g>
</svg>
